<svg width="300" height="296" viewBox="0 0 300 296" fill="none" xmlns="http://www.w3.org/2000/svg">
<g clip-path="url(#clip0_154_34)">
<path d="M177.852 48.1693C190.758 29.4894 201.134 -5.92777 139.384 1.84307C120.399 1.84307 105.994 11.3076 101.165 16.0398C93.1711 20.772 74.936 42.2913 65.9435 90.5106C57.1506 135.143 46.6258 158.09 42.4626 163.985C32.3041 179.178 18.0823 211.855 42.4626 221.021C32.6705 216.238 31.2217 204.582 31.7212 199.352C32.2208 193.624 40.4641 175.94 55.7017 170.959C72.9378 167.969 79.9323 163.072 81.9308 161.494C86.177 158.837 96.4188 150.037 103.413 136.089" stroke="#222222" stroke-width="2" stroke-linecap="round"/>
<path d="M190.093 20.0249C198.586 27.1648 216.771 50.6599 221.567 87.5216C223.565 102.881 223.732 113.508 223.565 115.915C224.065 125.629 225.964 146.6 227.562 152.777C229.561 160.498 232.558 170.958 220.318 198.854" stroke="#222222" stroke-width="2" stroke-linecap="round"/>
<path d="M171.857 60.8711C165.529 64.109 153.821 79.5507 157.618 115.417C158.868 129.863 164.501 160.661 150.624 173.199C142.631 180.423 138.134 184.159 135.886 204.831C133.139 219.526 129.642 242.689 87.9252 242.689C46.9586 242.689 34.4687 235.715 0.746094 269.837C8.98938 257.384 26.9747 233.225 51.2051 231.232C76.4349 230.236 84.6782 235.715 96.6685 215.79" stroke="#222222" stroke-width="2" stroke-linecap="round"/>
<path d="M51.9547 172.702C46.8637 185.234 41.9628 215.79 67.1923 230.983" stroke="#222222" stroke-width="2" stroke-linecap="square"/>
<path d="M180.101 58.8791C190.093 57.7167 209.627 62.8143 207.829 92.5028C205.58 129.614 205.58 151.78 192.091 170.958C178.602 190.137 174.106 199.601 161.116 200.348C156.87 200.431 146.378 198.904 138.385 192.129" stroke="#222222" stroke-width="2" stroke-linecap="round"/>
<path d="M16.9829 294.992C11.1543 288.434 3.24407 271.332 16.2335 255.889" stroke="#222222" stroke-width="2" stroke-linecap="round"/>
<path d="M137.385 195.367C141.632 198.77 150.124 206.574 150.124 221.269C150.124 229.24 148.376 230.236 156.869 238.953C165.362 247.671 176.103 254.893 186.345 280.298C189.842 288.019 193.04 292.004 207.828 294.993" stroke="#222222" stroke-width="2" stroke-linecap="round"/>
<path d="M229.311 160.747C236.055 161.494 254.54 165.252 267.53 182.913C268.995 184.906 285.665 204.283 299.254 214.047" stroke="#222222" stroke-width="2" stroke-linecap="round"/>
<path d="M146.128 205.08C151.457 205.91 164.263 206.524 172.856 202.34C173.606 201.976 180.6 197.857 179.6 189.14M181.849 186.151C182.764 195.2 187.094 215.641 197.086 225.005C198.335 226.417 201.782 228.742 205.579 226.749C210.326 224.258 210.825 223.013 215.321 223.013C221.317 223.013 237.054 224.009 244.298 206.325C251.792 190.634 252.541 185.155 261.035 175.69" stroke="#222222" stroke-width="2" stroke-linecap="round"/>
</g>
<defs>
<clipPath id="clip0_154_34">
<rect width="300" height="296" fill="white"/>
</clipPath>
</defs>
</svg>
