<svg width="176" height="35" viewBox="0 0 176 35" fill="none" xmlns="http://www.w3.org/2000/svg">
<mask id="mask0_143_490" style="mask-type:luminance" maskUnits="userSpaceOnUse" x="0" y="0" width="176" height="35">
<path d="M176 0H0V35H176V0Z" fill="white"/>
</mask>
<g mask="url(#mask0_143_490)">
<path d="M7.71247 21.4756V2.37801L0 0V21.4756C0 26.9507 4.45231 31.4371 9.88591 31.4371C11.2565 31.4371 12.5541 31.1511 13.7462 30.6444C10.2103 29.1244 7.72058 25.5779 7.72058 21.4756H7.71247Z" fill="#5B6670"/>
<path d="M19.7717 6.08777V21.4754C19.7717 25.5776 17.282 29.1161 13.7461 30.6442C14.9301 31.159 16.2358 31.4369 17.6064 31.4369C23.04 31.4369 27.4923 26.9505 27.4923 21.4754V8.4576L19.7798 6.07959L19.7717 6.08777Z" fill="#71A850"/>
<path d="M36.47 17.3817C38.0839 17.3817 39.5193 17.3817 40.7845 17.3572C42.0496 17.3409 43.185 17.3245 44.1825 17.2918C45.1881 17.2673 46.0721 17.2265 46.8425 17.1856C47.613 17.1447 48.3104 17.0875 48.943 17.014L49.1295 19.3021C48.5294 19.3756 47.8319 19.4328 47.0372 19.4819C46.2424 19.5309 45.3341 19.5718 44.3041 19.5963C43.2742 19.629 42.1145 19.6453 40.8169 19.6617C39.5193 19.678 38.0677 19.6862 36.4619 19.6862V17.3817H36.47ZM42.5038 14.9465C41.7171 14.9465 41.0034 14.8239 40.3546 14.5869C39.7059 14.35 39.1463 14.0231 38.684 13.6145C38.2218 13.2059 37.8568 12.7319 37.6054 12.2008C37.3459 11.6614 37.2161 11.0976 37.2161 10.5092V9.65928C37.2161 9.06276 37.3459 8.4989 37.6054 7.96773C37.8649 7.42839 38.2218 6.9626 38.684 6.55401C39.1463 6.14541 39.7059 5.81854 40.3546 5.58156C41.0034 5.34457 41.7252 5.222 42.5038 5.222C43.2823 5.222 44.0041 5.34457 44.661 5.58156C45.3098 5.81854 45.8693 6.14541 46.3316 6.55401C46.7939 6.9626 47.1507 7.43656 47.4102 7.96773C47.6697 8.50708 47.7995 9.07093 47.7995 9.65928V10.5092C47.7995 11.1057 47.6697 11.6696 47.4102 12.2008C47.1507 12.7401 46.7939 13.2059 46.3316 13.6145C45.8693 14.0231 45.3098 14.35 44.661 14.5869C44.0122 14.8239 43.2904 14.9465 42.5038 14.9465ZM42.5038 7.49377C42.082 7.49377 41.7009 7.55914 41.3603 7.69806C41.0197 7.82881 40.7196 8.00859 40.4763 8.22106C40.233 8.43353 40.0465 8.67868 39.9167 8.94836C39.787 9.2262 39.7302 9.51218 39.7302 9.80638V10.3539C39.7302 10.6481 39.7951 10.9341 39.9167 11.212C40.0465 11.4898 40.2249 11.7268 40.4763 11.9393C40.7196 12.1517 41.0115 12.3233 41.3603 12.4623C41.7009 12.593 42.082 12.6666 42.5038 12.6666C42.9255 12.6666 43.3066 12.6012 43.6472 12.4623C43.9879 12.3315 44.2879 12.1517 44.5312 11.9393C44.7745 11.7268 44.961 11.4816 45.0908 11.212C45.2206 10.9341 45.2773 10.6481 45.2773 10.3539V9.80638C45.2773 9.51218 45.2124 9.2262 45.0908 8.94836C44.961 8.67051 44.7826 8.43353 44.5312 8.22106C44.2879 8.00859 43.996 7.83699 43.6472 7.69806C43.3066 7.56731 42.9255 7.49377 42.5038 7.49377ZM52.5843 23.6822H49.9567V4.00439H52.5843V23.6904V23.6822Z" fill="#231916"/>
<path d="M57.2878 5.18931H67.3683V7.45291H63.7351V8.74406C63.7351 8.99739 63.7513 9.23437 63.7919 9.44684C63.8243 9.65928 63.8973 9.86358 64.0027 10.0597C64.1082 10.2559 64.246 10.452 64.4245 10.6399C64.6029 10.8279 64.8301 11.0322 65.1058 11.2447C65.5518 11.5797 66.0303 11.9311 66.5331 12.2825C67.0359 12.6339 67.5549 12.9771 68.0901 13.3203L66.6871 15.208C65.7464 14.5869 64.8868 13.9904 64.1002 13.4102C63.6541 13.0833 63.2972 12.8137 63.0296 12.5848C62.7619 12.356 62.6079 12.1926 62.5673 12.0782H62.543C62.5024 12.2089 62.3403 12.4051 62.0564 12.6829C61.7726 12.9608 61.3914 13.2876 60.9049 13.6635C60.4588 14.0313 59.9965 14.3908 59.5261 14.7504C59.0557 15.1099 58.5529 15.4777 58.0258 15.8372L56.4688 13.8923C57.1418 13.4429 57.7744 12.9853 58.3664 12.5195C58.9584 12.0537 59.4856 11.6206 59.9316 11.2283C60.2965 10.9014 60.5804 10.5419 60.7831 10.1415C60.9859 9.74098 61.0832 9.27524 61.0832 8.75223V7.46108H57.2797V5.19748L57.2878 5.18931ZM66.5331 24.2787C65.6654 24.2787 64.8624 24.197 64.1163 24.0254C63.3702 23.8538 62.7295 23.6087 62.1861 23.2818C61.6428 22.9549 61.213 22.5627 60.8967 22.0969C60.5804 21.6311 60.4263 21.0999 60.4263 20.5115V19.5799C60.4263 18.9916 60.5804 18.4604 60.8967 17.9946C61.213 17.5288 61.6428 17.1366 62.1861 16.8097C62.7295 16.4828 63.3783 16.2377 64.1163 16.066C64.8543 15.8944 65.6654 15.8127 66.5331 15.8127C67.4009 15.8127 68.2037 15.8944 68.9499 16.066C69.6879 16.2377 70.3366 16.4828 70.88 16.8097C71.4234 17.1366 71.8531 17.5288 72.1694 17.9946C72.4857 18.4604 72.6397 18.9916 72.6397 19.5799V20.5115C72.6397 21.0999 72.4857 21.6311 72.1694 22.0969C71.8531 22.5627 71.4234 22.9549 70.88 23.2818C70.3366 23.6087 69.6879 23.8538 68.9499 24.0254C68.2037 24.197 67.4009 24.2787 66.5331 24.2787ZM66.5331 17.9946C66.0709 17.9946 65.6329 18.0436 65.2112 18.1335C64.7895 18.2234 64.4165 18.3542 64.1002 18.5176C63.7758 18.681 63.5162 18.869 63.3215 19.0896C63.1269 19.3103 63.0296 19.5473 63.0296 19.8006V20.3072C63.0296 20.5606 63.1269 20.7975 63.3215 21.0182C63.5162 21.2388 63.7758 21.4268 64.1002 21.5902C64.4246 21.7537 64.7895 21.8762 65.2112 21.9743C65.6329 22.0642 66.0709 22.1132 66.5331 22.1132C66.9954 22.1132 67.4333 22.0642 67.8549 21.9743C68.2766 21.8844 68.6416 21.7537 68.966 21.5902C69.2904 21.4268 69.5499 21.2388 69.7445 21.0182C69.9392 20.7975 70.0365 20.5606 70.0365 20.3072V19.8006C70.0365 19.5473 69.9392 19.3103 69.7445 19.0896C69.5499 18.869 69.2904 18.681 68.966 18.5176C68.6416 18.3542 68.2766 18.2316 67.8549 18.1335C67.4333 18.0436 66.9954 17.9946 66.5331 17.9946ZM69.9311 11.1139H66.8008V8.85029H69.9311V4.00439H72.575V15.7065H69.9311V11.1139Z" fill="#231916"/>
<path d="M94.5449 15.4694V17.733H86.9379V23.6821H84.2697V17.733H76.6465V15.4694H94.5449ZM92.1363 4.73975V13.7125H79.0713V4.73975H81.7151V7.17495H89.4844V4.73975H92.1282H92.1363ZM89.4844 11.4979V9.42221H81.7151V11.4979H89.4844Z" fill="#231916"/>
<path d="M107.213 15.1096V18.9422H114.836V21.2058H96.9375V18.9422H104.561V15.1096H99.2245V5.56494H112.289V7.82854H101.868V12.846H112.541V15.1096H107.205H107.213Z" fill="#231916"/>
<path d="M126.286 13.9495C126.732 14.4399 127.227 14.9547 127.754 15.4859C128.289 16.017 128.825 16.5237 129.368 17.0222L127.665 18.82C127.186 18.3705 126.724 17.9211 126.278 17.4716C125.832 17.0303 125.41 16.5972 125.021 16.1886C124.616 15.78 124.275 15.4123 123.991 15.0773C123.715 14.7422 123.537 14.4889 123.464 14.3091H123.423C123.35 14.5052 123.164 14.7912 122.848 15.1671C122.531 15.5431 122.199 15.9108 121.85 16.2785C121.461 16.6871 121.047 17.1039 120.609 17.537C120.171 17.9701 119.66 18.4686 119.052 19.0324L117.309 17.2101C118.501 16.1396 119.547 15.1018 120.455 14.0966C120.763 13.7616 121.023 13.4347 121.226 13.1242C121.428 12.8137 121.591 12.495 121.72 12.1681C121.85 11.8412 121.939 11.5062 121.996 11.1548C122.053 10.8034 122.077 10.403 122.077 9.96988V5.37726H124.786V9.96988C124.786 10.3948 124.802 10.7707 124.835 11.1139C124.867 11.449 124.94 11.7758 125.054 12.0782C125.167 12.3805 125.313 12.6829 125.508 12.9853C125.694 13.2876 125.954 13.6063 126.278 13.9495H126.286ZM133.682 23.6822H131.014V4.00439H133.682V23.6904V23.6822Z" fill="#231916"/>
<path d="M143.739 12.83V9.2507H146.407V12.83H155.417V15.0772H137.519V12.83H143.739ZM152.879 4.7235V7.59999C152.879 7.83697 152.871 8.13116 152.846 8.47438C152.83 8.81759 152.798 9.1935 152.749 9.58578C152.709 9.97798 152.66 10.3784 152.603 10.7707C152.546 11.1629 152.481 11.5225 152.417 11.8494L149.83 11.5552C149.984 10.8034 150.089 10.1088 150.146 9.455C150.203 8.80942 150.227 8.21288 150.227 7.67354V6.97893H139.854V4.71533H152.879V4.7235ZM146.472 24.2787C145.621 24.2787 144.81 24.197 144.047 24.0418C143.285 23.8865 142.612 23.6577 142.044 23.3471C141.468 23.0366 141.014 22.6525 140.682 22.1949C140.349 21.7373 140.179 21.2061 140.179 20.6014V19.964C140.179 19.3593 140.349 18.8281 140.682 18.3623C141.014 17.9047 141.468 17.5206 142.044 17.2101C142.62 16.8996 143.285 16.6708 144.047 16.5073C144.81 16.3521 145.621 16.2785 146.472 16.2785C147.324 16.2785 148.135 16.3521 148.897 16.5073C149.659 16.6626 150.332 16.8996 150.9 17.2101C151.476 17.5206 151.93 17.9047 152.263 18.3623C152.595 18.8199 152.765 19.3511 152.765 19.964V20.6014C152.765 21.2061 152.595 21.7373 152.263 22.1949C151.93 22.6525 151.468 23.0366 150.9 23.3471C150.324 23.6577 149.659 23.8947 148.897 24.0418C148.135 24.197 147.324 24.2787 146.472 24.2787ZM146.472 18.4604C146.01 18.4604 145.556 18.5012 145.11 18.5748C144.664 18.6483 144.266 18.7627 143.926 18.9017C143.585 19.0406 143.309 19.2204 143.098 19.4328C142.888 19.6453 142.782 19.8741 142.782 20.1274V20.4216C142.782 20.675 142.888 20.9119 143.098 21.1162C143.309 21.3287 143.585 21.5003 143.926 21.6474C144.266 21.7863 144.664 21.9007 145.11 21.9743C145.556 22.0478 146.01 22.0887 146.472 22.0887C146.934 22.0887 147.388 22.0478 147.835 21.9743C148.281 21.9007 148.678 21.7863 149.019 21.6474C149.359 21.5085 149.635 21.3287 149.846 21.1162C150.057 20.9038 150.162 20.675 150.162 20.4216V20.1274C150.162 19.8741 150.057 19.6453 149.846 19.4328C149.635 19.2204 149.359 19.0488 149.019 18.9017C148.678 18.7627 148.281 18.6483 147.835 18.5748C147.388 18.5012 146.934 18.4604 146.472 18.4604Z" fill="#231916"/>
<path d="M166.463 13.9087C166.909 14.399 167.404 14.9138 167.931 15.445C168.466 15.9762 169.001 16.4828 169.545 16.9813L167.842 18.7791C167.363 18.3296 166.901 17.8802 166.455 17.4389C166.009 16.9976 165.587 16.5645 165.198 16.1559C164.792 15.7473 164.452 15.3796 164.168 15.0446C163.884 14.7095 163.714 14.4562 163.641 14.2682H163.6C163.527 14.4644 163.341 14.7504 163.024 15.1263C162.708 15.5022 162.376 15.8699 162.027 16.2377C161.638 16.6463 161.224 17.0712 160.786 17.4961C160.348 17.9292 159.837 18.4277 159.229 18.9916L157.485 17.1692C158.677 16.0987 159.724 15.0609 160.632 14.0558C160.94 13.7207 161.192 13.3939 161.402 13.0833C161.605 12.7728 161.767 12.4541 161.897 12.1272C162.027 11.8003 162.116 11.4653 162.173 11.1139C162.23 10.7625 162.254 10.3703 162.254 9.92898V5.40178H164.963V9.92898C164.963 10.3539 164.979 10.7298 165.019 11.0731C165.052 11.4081 165.125 11.735 165.238 12.0373C165.352 12.3397 165.498 12.642 165.693 12.9444C165.879 13.2468 166.139 13.5655 166.455 13.9087H166.463ZM173.316 10.9423H176V13.2713H173.316V23.6822H170.648V4.00439H173.316V10.9505V10.9423Z" fill="#231916"/>
<path d="M38.6683 26.0601V30.3912C38.6683 30.9959 38.7817 31.4453 39.0169 31.7395C39.244 32.0337 39.6658 32.189 40.2822 32.189C40.8985 32.189 41.312 32.0419 41.5472 31.7395C41.7824 31.4372 41.896 30.9877 41.896 30.3912V26.0601H42.6665V30.3993C42.6665 31.2656 42.4556 31.903 42.042 32.2952C41.6284 32.6875 41.0363 32.8918 40.2739 32.8918C39.8279 32.8918 39.4549 32.8346 39.1468 32.712C38.8386 32.5894 38.5952 32.4178 38.4087 32.189C38.2222 31.9683 38.0924 31.715 38.0113 31.4127C37.9302 31.1103 37.8896 30.7834 37.8896 30.4239V26.0683H38.6601L38.6683 26.0601Z" fill="#7B848C"/>
<path d="M46.3243 32.2051C46.4135 32.1888 46.519 32.1479 46.6406 32.0826L46.8109 32.6546C46.6568 32.7445 46.5028 32.8017 46.3649 32.8344C46.227 32.8671 46.081 32.8834 45.9432 32.8834C45.6269 32.8834 45.3917 32.7853 45.2295 32.5974C45.0673 32.4094 44.9862 32.1888 44.9862 31.9436V28.7648H44.2969V28.1356H45.7648V31.8864C45.7648 31.9845 45.781 32.0662 45.8215 32.1234C45.8621 32.1806 45.9432 32.2133 46.0567 32.2133C46.1459 32.2133 46.227 32.2051 46.3243 32.1806V32.2051ZM44.9051 26.8853V25.8638H45.7729V26.8853H44.9051Z" fill="#7B848C"/>
<path d="M47.9462 28.7811V28.1519H49.4222V33.1939C49.4222 33.3492 49.3979 33.5208 49.3573 33.7006C49.3168 33.8804 49.2438 34.0438 49.1384 34.1991C49.0329 34.3543 48.887 34.4769 48.7085 34.575C48.522 34.673 48.2949 34.7221 48.0192 34.7221C47.9381 34.7221 47.8408 34.7139 47.7191 34.6976C47.5975 34.6812 47.4758 34.6567 47.3623 34.624V34.0275C47.484 34.0438 47.5894 34.0601 47.6867 34.0601C47.784 34.0601 47.8813 34.0601 47.9787 34.0601C48.1895 34.0438 48.3517 33.9866 48.4652 33.8885C48.5788 33.7823 48.6356 33.5944 48.6356 33.3083V28.7893H47.9462V28.7811ZM48.5626 26.8853V25.8638H49.3898V26.8853H48.5626Z" fill="#7B848C"/>
<path d="M54.2067 32.156C54.4824 32.0988 54.7501 32.0171 55.0015 31.8945L55.2042 32.491C54.9528 32.6218 54.6771 32.7198 54.3851 32.7934C54.0851 32.8588 53.8012 32.8915 53.5255 32.8915C52.7064 32.8915 52.1144 32.679 51.7494 32.2459C51.3845 31.8128 51.2061 31.1835 51.2061 30.3582C51.2061 30.0068 51.2547 29.6881 51.3601 29.4021C51.4656 29.1161 51.6115 28.8709 51.7981 28.6584C51.9846 28.4623 52.2117 28.3071 52.4793 28.1926C52.7388 28.0782 53.0308 28.021 53.3471 28.021C54.0364 28.021 54.5311 28.1681 54.8312 28.4541C55.1312 28.7402 55.2772 29.0834 55.2772 29.4838C55.2772 29.9741 55.115 30.3173 54.7906 30.5135C54.4662 30.7096 54.0607 30.8076 53.5822 30.8076H52.017C52.017 31.2734 52.1468 31.6248 52.4063 31.8618C52.6658 32.107 53.0389 32.2214 53.5336 32.2214C53.7039 32.2214 53.931 32.1969 54.2067 32.1396V32.156ZM52.382 29.067C52.1468 29.3204 52.0251 29.6799 52.017 30.1457H53.5904C53.8499 30.1457 54.0688 30.1049 54.2472 30.015C54.4257 29.9251 54.5149 29.7535 54.5149 29.492C54.5149 29.2632 54.4176 29.0752 54.2472 28.9199C54.0769 28.7647 53.7769 28.683 53.3552 28.683C52.9335 28.683 52.6172 28.8055 52.382 29.0589V29.067Z" fill="#7B848C"/>
<path d="M60.2887 28.6177C60.6699 29.0099 60.8564 29.6228 60.8564 30.4564C60.8564 31.2409 60.6618 31.8456 60.2887 32.2705C59.9075 32.6873 59.3885 32.8997 58.7397 32.8997C58.0909 32.8997 57.5719 32.6873 57.1907 32.2705C56.8096 31.8537 56.623 31.249 56.623 30.4564C56.623 29.6228 56.8096 29.0099 57.1907 28.6177C57.5719 28.2254 58.0909 28.0293 58.7397 28.0293C59.3885 28.0293 59.9075 28.2254 60.2887 28.6177ZM57.7017 31.723C57.8963 32.058 58.245 32.2296 58.7397 32.2296C59.2344 32.2296 59.575 32.058 59.7778 31.723C59.9724 31.3879 60.0697 30.963 60.0697 30.4482C60.0697 29.9334 59.9724 29.4921 59.7778 29.1734C59.5831 28.8547 59.2425 28.6912 58.7478 28.6912C58.2531 28.6912 57.8882 28.8547 57.7017 29.1734C57.507 29.4921 57.4097 29.917 57.4097 30.4482C57.4097 30.9794 57.507 31.3798 57.7017 31.723Z" fill="#7B848C"/>
<path d="M65.6009 32.7692V29.6394C65.6009 29.3452 65.5522 29.1082 65.4549 28.9448C65.3576 28.7813 65.163 28.6996 64.8629 28.6996C64.5872 28.6996 64.2952 28.7895 64.0033 28.9611C63.7032 29.1327 63.4599 29.3125 63.2815 29.5086V32.7774H62.5029V28.193H63.176L63.2734 28.7405C63.5085 28.5444 63.7681 28.3728 64.0438 28.242C64.3195 28.1113 64.6439 28.0459 64.9927 28.0459C65.463 28.0459 65.8117 28.1766 66.0388 28.4381C66.2659 28.6996 66.3794 29.0428 66.3794 29.4678V32.7855H65.6009V32.7692Z" fill="#7B848C"/>
<path d="M71.9999 33.1287C71.9999 33.7661 71.8052 34.2319 71.4079 34.5424C71.0105 34.8447 70.4995 35 69.867 35C69.7616 35 69.6561 35 69.5588 35C69.4615 35 69.3561 34.9918 69.2587 34.9837C69.1614 34.9837 69.0641 34.9837 68.9668 34.9837C68.8695 34.9837 68.7884 34.9837 68.7073 34.9837V34.3217C68.9425 34.3381 69.1452 34.3544 69.3155 34.3544C69.4858 34.3544 69.6723 34.3544 69.867 34.3544C70.2563 34.3544 70.5725 34.2645 70.8239 34.0929C71.0753 33.9213 71.2051 33.6026 71.2051 33.145V32.622C70.9699 32.7364 70.7266 32.81 70.4914 32.8508C70.2481 32.8917 70.0373 32.908 69.8345 32.908C69.5426 32.908 69.2912 32.8508 69.0641 32.7282C68.837 32.6057 68.6424 32.434 68.4883 32.2134C68.3342 31.9928 68.2126 31.7394 68.1315 31.4371C68.0504 31.1429 68.0098 30.816 68.0098 30.4646C68.0098 29.6965 68.1396 29.0999 68.4072 28.675C68.6667 28.2501 69.1128 28.0376 69.7372 28.0376C70.0292 28.0376 70.2968 28.103 70.5482 28.2337C70.7996 28.3645 71.0186 28.5361 71.2213 28.7322L71.3105 28.1847H71.9999V33.1368V33.1287ZM70.5563 32.1807C70.751 32.1399 70.9699 32.05 71.2051 31.911V29.5412C71.0348 29.3124 70.832 29.1163 70.605 28.9528C70.3779 28.7812 70.1265 28.6995 69.867 28.6995C69.4858 28.6995 69.2101 28.8384 69.0479 29.1163C68.8857 29.3941 68.8046 29.8436 68.8046 30.4565C68.8046 30.6853 68.8208 30.9141 68.8532 31.1266C68.8857 31.339 68.9506 31.5351 69.0398 31.6986C69.129 31.862 69.2587 32.0009 69.4128 32.099C69.5669 32.1971 69.7697 32.2461 70.013 32.2461C70.1833 32.2461 70.3698 32.2298 70.5644 32.1889L70.5563 32.1807Z" fill="#7B848C"/>
<path d="M73.7275 32.769V25.8638H74.498V28.2336C74.6196 28.2173 74.7332 28.1928 74.8467 28.1764C74.9602 28.1601 75.0738 28.1356 75.1873 28.1192C75.309 28.1029 75.4225 28.0865 75.5441 28.0702C75.6658 28.062 75.7874 28.0538 75.9253 28.0457C76.4768 28.0457 76.9228 28.2418 77.2634 28.6504C77.604 29.059 77.7744 29.6637 77.7744 30.4727C77.7744 30.8078 77.7419 31.1183 77.6689 31.4043C77.5959 31.6985 77.4905 31.9436 77.3526 32.1561C77.2067 32.3767 77.0364 32.5484 76.8336 32.6791C76.6309 32.8099 76.3957 32.8834 76.1362 32.8834C75.8118 32.8997 75.5279 32.8834 75.2684 32.8017C75.0089 32.7281 74.7656 32.5892 74.5385 32.3931L74.4088 32.7527H73.7356L73.7275 32.769ZM75.4549 28.7321C75.3495 28.7485 75.2522 28.7648 75.1468 28.7893C75.0413 28.8057 74.9359 28.8302 74.8305 28.8547C74.725 28.8792 74.6196 28.9037 74.5142 28.9201V31.5923C74.6521 31.7802 74.8305 31.9355 75.0494 32.0499C75.2684 32.1725 75.5036 32.2378 75.7631 32.2378C76.1362 32.2378 76.4281 32.1071 76.6471 31.8374C76.8579 31.5759 76.9634 31.1183 76.9634 30.4727C76.9634 29.8925 76.8579 29.4512 76.6552 29.1489C76.4443 28.8465 76.1524 28.6994 75.7631 28.6994C75.6577 28.6994 75.5523 28.7076 75.4549 28.7239V28.7321Z" fill="#7B848C"/>
<path d="M83.1835 28.1765V31.96C83.1835 32.0744 83.1997 32.1561 83.2403 32.197C83.2808 32.246 83.3457 32.2624 83.4511 32.2624C83.4998 32.2624 83.5647 32.2624 83.6295 32.246C83.7025 32.2379 83.7593 32.2215 83.7998 32.197L83.9296 32.72C83.8404 32.7772 83.735 32.8099 83.6376 32.8426C83.5322 32.8671 83.4268 32.8834 83.3295 32.8834C83.1105 32.8834 82.924 32.8426 82.7699 32.769C82.6158 32.6955 82.5023 32.5402 82.4212 32.3032C82.2103 32.4994 81.9751 32.6465 81.7237 32.7363C81.4642 32.8262 81.1966 32.8753 80.9127 32.8753C80.4424 32.8753 80.0693 32.769 79.8017 32.5484C79.5341 32.3278 79.4043 31.9764 79.4043 31.4942V28.1601H80.1828V31.4452C80.1828 31.7394 80.2396 31.9355 80.3694 32.0499C80.491 32.1561 80.7019 32.2133 80.9938 32.2133C81.2533 32.2133 81.4966 32.1561 81.7399 32.0254C81.9832 31.9028 82.2022 31.7312 82.3968 31.5106V28.1519H83.1754L83.1835 28.1765Z" fill="#7B848C"/>
<path d="M89.2493 26.0601V30.3912C89.2493 30.9959 89.3628 31.4453 89.598 31.7395C89.8251 32.0337 90.2468 32.189 90.8631 32.189C91.4795 32.189 91.8931 32.0419 92.1282 31.7395C92.3634 31.4372 92.477 30.9877 92.477 30.3912V26.0601H93.2474V30.3993C93.2474 31.2656 93.0366 31.903 92.6229 32.2952C92.2093 32.6956 91.6173 32.8918 90.855 32.8918C90.409 32.8918 90.0359 32.8346 89.7277 32.712C89.4196 32.5894 89.1763 32.4178 88.9897 32.189C88.8032 31.9683 88.6735 31.715 88.5924 31.4127C88.5113 31.1103 88.4707 30.7834 88.4707 30.4239V26.0683H89.2411L89.2493 26.0601Z" fill="#7B848C"/>
<path d="M95.0801 32.7691V28.1847H95.7614L95.8506 28.6423C96.029 28.4462 96.2236 28.2909 96.4426 28.1929C96.6615 28.0948 96.8805 28.0376 97.1157 28.0376C97.2373 28.0376 97.3671 28.0458 97.4887 28.0703C97.6104 28.0948 97.7239 28.1193 97.8213 28.1438V28.8221C97.6996 28.7894 97.5942 28.7649 97.4887 28.7404C97.3833 28.7159 97.2698 28.7077 97.14 28.7077C96.9048 28.7077 96.6778 28.7649 96.4669 28.8711C96.2561 28.9774 96.0533 29.1326 95.8668 29.3206V32.7773H95.0801V32.7691Z" fill="#7B848C"/>
<path d="M99.0625 32.769V25.8638H99.8329V28.2336C99.9546 28.2173 100.068 28.1928 100.182 28.1764C100.295 28.1601 100.409 28.1356 100.522 28.1192C100.644 28.1029 100.757 28.0865 100.879 28.0702C101.001 28.062 101.122 28.0538 101.26 28.0457C101.812 28.0457 102.258 28.2418 102.598 28.6504C102.939 29.059 103.109 29.6637 103.109 30.4727C103.109 30.8078 103.077 31.1183 103.004 31.4043C102.931 31.6985 102.825 31.9436 102.688 32.1561C102.542 32.3767 102.371 32.5484 102.169 32.6791C101.966 32.8099 101.731 32.8834 101.471 32.8834C101.147 32.8997 100.863 32.8834 100.603 32.8017C100.344 32.7281 100.101 32.5892 99.8735 32.3931L99.7437 32.7527H99.0706L99.0625 32.769ZM100.782 28.7321C100.676 28.7485 100.579 28.7648 100.474 28.7893C100.368 28.8057 100.263 28.8302 100.157 28.8547C100.052 28.8792 99.9465 28.9037 99.841 28.9201V31.5923C99.9789 31.7802 100.157 31.9355 100.376 32.0499C100.595 32.1725 100.83 32.2378 101.09 32.2378C101.463 32.2378 101.755 32.1071 101.974 31.8374C102.185 31.5759 102.29 31.1183 102.29 30.4727C102.29 29.8925 102.185 29.4512 101.982 29.1489C101.771 28.8465 101.479 28.6994 101.09 28.6994C100.985 28.6994 100.879 28.7076 100.782 28.7239V28.7321Z" fill="#7B848C"/>
<path d="M108.243 31.9436C108.243 32.0417 108.259 32.1234 108.283 32.1806C108.308 32.2378 108.372 32.2705 108.47 32.2705C108.518 32.2705 108.583 32.2705 108.64 32.2623C108.705 32.2623 108.786 32.2378 108.883 32.2051L109.013 32.7281C108.916 32.7853 108.802 32.8344 108.673 32.8589C108.543 32.8834 108.429 32.8997 108.332 32.8997C108.153 32.8997 107.999 32.8671 107.87 32.7935C107.74 32.72 107.634 32.5974 107.537 32.4258C107.318 32.5892 107.083 32.7118 106.823 32.7853C106.564 32.8589 106.288 32.8997 105.988 32.8997C105.485 32.8997 105.112 32.769 104.861 32.4993C104.609 32.2296 104.48 31.8864 104.48 31.4697C104.48 31.0529 104.585 30.7179 104.796 30.44C105.007 30.1622 105.356 29.9987 105.85 29.9497C105.972 29.9497 106.077 29.9334 106.175 29.9252C106.272 29.917 106.369 29.9088 106.483 29.9007C106.605 29.9007 106.734 29.9007 106.888 29.9007C107.042 29.9007 107.237 29.8925 107.472 29.8843V29.6228C107.472 29.3123 107.383 29.0835 107.197 28.9282C107.01 28.773 106.75 28.6994 106.418 28.6994C106.272 28.6994 106.142 28.7076 106.021 28.7239C105.899 28.7403 105.785 28.7566 105.672 28.7811C105.558 28.7975 105.453 28.822 105.356 28.8465C105.25 28.871 105.153 28.8955 105.056 28.9119L104.926 28.2745C105.202 28.2009 105.453 28.1437 105.672 28.0947C105.891 28.0457 106.142 28.0293 106.418 28.0293C106.986 28.0293 107.44 28.1519 107.764 28.4052C108.089 28.6504 108.251 29.0345 108.251 29.5411V31.9436H108.243ZM107.472 30.5217C107.107 30.5217 106.807 30.5381 106.572 30.5544C106.345 30.5708 106.142 30.5871 105.972 30.6035C105.68 30.6443 105.485 30.7424 105.388 30.8976C105.291 31.0529 105.242 31.249 105.25 31.4615C105.25 31.6985 105.307 31.8864 105.412 32.0253C105.518 32.1643 105.753 32.2296 106.094 32.2296C106.313 32.2296 106.523 32.197 106.726 32.1234C106.937 32.058 107.18 31.8946 107.464 31.6494V30.5136L107.472 30.5217Z" fill="#7B848C"/>
<path d="M113.555 32.7692V29.6394C113.555 29.3452 113.506 29.1082 113.409 28.9448C113.312 28.7813 113.117 28.6996 112.817 28.6996C112.541 28.6996 112.249 28.7895 111.957 28.9611C111.657 29.1327 111.414 29.3125 111.236 29.5086V32.7774H110.457V28.193H111.13L111.227 28.7405C111.463 28.5444 111.722 28.3728 111.998 28.242C112.274 28.1113 112.598 28.0459 112.947 28.0459C113.417 28.0459 113.766 28.1766 113.993 28.4381C114.22 28.6996 114.334 29.0428 114.334 29.4678V32.7855H113.555V32.7692Z" fill="#7B848C"/>
<path d="M124.316 32.4829C124.089 32.5973 123.813 32.6953 123.497 32.7689C123.181 32.8506 122.84 32.8915 122.483 32.8915C121.494 32.8915 120.715 32.5973 120.14 32.0007C119.564 31.4124 119.28 30.5461 119.28 29.4103C119.28 28.8464 119.353 28.3479 119.507 27.9066C119.661 27.4735 119.872 27.1058 120.156 26.8116C120.44 26.5174 120.772 26.2968 121.17 26.1497C121.559 25.9944 121.997 25.9209 122.483 25.9209C122.84 25.9209 123.173 25.9617 123.481 26.0435C123.789 26.1252 124.073 26.2151 124.316 26.3295L124.081 26.9914C123.822 26.8688 123.562 26.7789 123.294 26.7135C123.027 26.6482 122.767 26.6155 122.516 26.6155C122.175 26.6155 121.859 26.6645 121.559 26.7626C121.267 26.8606 121.007 27.0241 120.78 27.2529C120.553 27.4735 120.383 27.7595 120.261 28.1109C120.14 28.4623 120.075 28.8954 120.075 29.4103C120.075 29.9251 120.14 30.3745 120.269 30.7259C120.399 31.0773 120.578 31.3633 120.805 31.584C121.032 31.8046 121.283 31.9599 121.575 32.0498C121.867 32.1397 122.175 32.1887 122.483 32.1887C122.743 32.1887 123.011 32.156 123.286 32.0906C123.562 32.0252 123.822 31.9354 124.081 31.8046L124.316 32.4665V32.4829Z" fill="#7B848C"/>
<path d="M129.15 28.6177C129.531 29.0099 129.717 29.6228 129.717 30.4564C129.717 31.2409 129.523 31.8456 129.15 32.2705C128.769 32.6873 128.25 32.8997 127.601 32.8997C126.952 32.8997 126.433 32.6873 126.052 32.2705C125.671 31.8537 125.484 31.249 125.484 30.4564C125.484 29.6228 125.671 29.0099 126.052 28.6177C126.433 28.2254 126.952 28.0293 127.601 28.0293C128.25 28.0293 128.769 28.2254 129.15 28.6177ZM126.563 31.723C126.757 32.058 127.106 32.2296 127.601 32.2296C128.096 32.2296 128.436 32.058 128.639 31.723C128.833 31.3879 128.931 30.963 128.931 30.4482C128.931 29.9334 128.833 29.4921 128.639 29.1734C128.444 28.8547 128.104 28.6912 127.609 28.6912C127.114 28.6912 126.749 28.8547 126.563 29.1734C126.368 29.4921 126.271 29.917 126.271 30.4482C126.271 30.9794 126.368 31.3798 126.563 31.723Z" fill="#7B848C"/>
<path d="M131.356 32.7691V28.1847H132.037L132.126 28.6423C132.305 28.4462 132.499 28.2909 132.718 28.1929C132.937 28.0948 133.156 28.0376 133.391 28.0376C133.513 28.0376 133.643 28.0458 133.764 28.0703C133.886 28.0948 134 28.1193 134.097 28.1438V28.8221C133.975 28.7894 133.87 28.7649 133.764 28.7404C133.659 28.7159 133.545 28.7077 133.416 28.7077C133.18 28.7077 132.953 28.7649 132.742 28.8711C132.532 28.9774 132.329 29.1326 132.142 29.3206V32.7773H131.356V32.7691Z" fill="#7B848C"/>
<path d="M135.337 28.1764H135.994L136.091 28.7321C136.246 28.5687 136.448 28.4052 136.7 28.2581C136.951 28.1029 137.267 28.0293 137.649 28.0293C138.224 28.0293 138.646 28.25 138.897 28.6912C139.157 29.1325 139.279 29.6964 139.279 30.391C139.279 31.1346 139.116 31.7312 138.792 32.197C138.468 32.6628 138.022 32.8916 137.454 32.8916C137.194 32.8916 136.967 32.867 136.756 32.8262C136.546 32.7772 136.335 32.72 136.116 32.6546V34.6567H135.329V28.1682L135.337 28.1764ZM138.232 31.723C138.411 31.3879 138.5 30.9467 138.5 30.4155C138.5 29.8843 138.427 29.4512 138.273 29.1489C138.119 28.8465 137.851 28.6994 137.454 28.6994C137.178 28.6994 136.927 28.7893 136.692 28.9609C136.456 29.1325 136.27 29.3368 136.124 29.5493V31.9763C136.237 32.0172 136.343 32.0499 136.432 32.0826C136.529 32.1152 136.619 32.1398 136.7 32.1643C136.789 32.1888 136.886 32.2051 136.975 32.2215C137.065 32.2296 137.17 32.2378 137.292 32.2378C137.738 32.2378 138.054 32.0662 138.224 31.7312L138.232 31.723Z" fill="#7B848C"/>
<path d="M144.494 28.6177C144.875 29.0099 145.061 29.6228 145.061 30.4564C145.061 31.2409 144.867 31.8456 144.494 32.2705C144.112 32.6873 143.593 32.8997 142.945 32.8997C142.296 32.8997 141.777 32.6873 141.396 32.2705C141.014 31.8537 140.828 31.249 140.828 30.4564C140.828 29.6228 141.014 29.0099 141.396 28.6177C141.777 28.2254 142.296 28.0293 142.945 28.0293C143.593 28.0293 144.112 28.2254 144.494 28.6177ZM141.906 31.723C142.101 32.058 142.45 32.2296 142.945 32.2296C143.439 32.2296 143.78 32.058 143.983 31.723C144.177 31.3879 144.275 30.963 144.275 30.4482C144.275 29.9334 144.177 29.4921 143.983 29.1734C143.788 28.8547 143.447 28.6912 142.953 28.6912C142.458 28.6912 142.093 28.8547 141.906 29.1734C141.712 29.4921 141.615 29.917 141.615 30.4482C141.615 30.9794 141.712 31.3798 141.906 31.723Z" fill="#7B848C"/>
<path d="M146.699 32.7691V28.1847H147.38L147.47 28.6423C147.648 28.4462 147.843 28.2909 148.062 28.1929C148.281 28.0866 148.5 28.0376 148.735 28.0376C148.856 28.0376 148.986 28.0458 149.108 28.0703C149.229 28.0948 149.343 28.1193 149.44 28.1438V28.8221C149.319 28.7894 149.213 28.7649 149.108 28.7404C149.002 28.7159 148.889 28.7077 148.759 28.7077C148.524 28.7077 148.297 28.7649 148.086 28.8711C147.875 28.9774 147.672 29.1326 147.486 29.3206V32.7773H146.699V32.7691Z" fill="#7B848C"/>
<path d="M154.193 31.9436C154.193 32.0417 154.209 32.1234 154.233 32.1806C154.258 32.2378 154.322 32.2705 154.42 32.2705C154.468 32.2705 154.533 32.2705 154.59 32.2623C154.655 32.2623 154.736 32.2378 154.833 32.2051L154.963 32.7281C154.866 32.7853 154.752 32.8344 154.622 32.8589C154.493 32.8834 154.379 32.8997 154.282 32.8997C154.103 32.8997 153.949 32.8671 153.82 32.7935C153.69 32.72 153.584 32.5974 153.487 32.4258C153.268 32.5892 153.033 32.7118 152.773 32.7853C152.514 32.8589 152.238 32.8997 151.938 32.8997C151.435 32.8997 151.062 32.769 150.811 32.4993C150.559 32.2296 150.43 31.8864 150.43 31.4697C150.43 31.0529 150.535 30.7179 150.746 30.44C150.957 30.1622 151.306 29.9987 151.8 29.9497C151.922 29.9497 152.027 29.9334 152.125 29.9252C152.222 29.917 152.319 29.9088 152.433 29.9007C152.554 29.9007 152.684 29.9007 152.838 29.9007C152.992 29.9007 153.187 29.8925 153.422 29.8843V29.6228C153.422 29.3123 153.333 29.0835 153.146 28.9282C152.96 28.773 152.7 28.6994 152.368 28.6994C152.222 28.6994 152.092 28.7076 151.971 28.7239C151.849 28.7403 151.735 28.7566 151.622 28.7811C151.508 28.7975 151.403 28.822 151.306 28.8465C151.2 28.871 151.103 28.8955 151.005 28.9119L150.876 28.2745C151.151 28.2009 151.403 28.1437 151.622 28.0947C151.841 28.0457 152.092 28.0293 152.368 28.0293C152.936 28.0293 153.39 28.1519 153.714 28.4052C154.039 28.6504 154.201 29.0345 154.201 29.5411V31.9436H154.193ZM153.422 30.5217C153.057 30.5217 152.757 30.5381 152.522 30.5544C152.295 30.5708 152.092 30.5871 151.922 30.6035C151.63 30.6443 151.435 30.7424 151.338 30.8976C151.241 31.0529 151.192 31.249 151.2 31.4615C151.2 31.6985 151.257 31.8864 151.362 32.0253C151.468 32.1643 151.703 32.2296 152.044 32.2296C152.263 32.2296 152.473 32.197 152.676 32.1234C152.887 32.058 153.13 31.8946 153.414 31.6494V30.5136L153.422 30.5217Z" fill="#7B848C"/>
<path d="M157.485 28.814V31.8213C157.485 31.952 157.51 32.0583 157.55 32.1318C157.599 32.2054 157.688 32.2462 157.826 32.2462C157.899 32.2462 158.004 32.2299 158.142 32.2054C158.28 32.1808 158.41 32.14 158.523 32.0746L158.694 32.6221C158.548 32.712 158.386 32.7774 158.215 32.8183C158.045 32.8673 157.858 32.8836 157.68 32.8836C157.364 32.8836 157.12 32.7937 156.95 32.614C156.78 32.4342 156.691 32.1972 156.691 31.9112V28.8059H155.807V28.1521H156.691V26.4115L157.477 26.2563V28.1521H158.499V28.8059H157.477L157.485 28.814Z" fill="#7B848C"/>
<path d="M162.165 32.2051C162.254 32.1888 162.36 32.1479 162.481 32.0826L162.651 32.6546C162.497 32.7445 162.343 32.8017 162.205 32.8344C162.068 32.8671 161.922 32.8834 161.784 32.8834C161.467 32.8834 161.232 32.7853 161.07 32.5974C160.908 32.4094 160.827 32.1888 160.827 31.9436V28.7648H160.137V28.1356H161.605V31.8864C161.605 31.9845 161.622 32.0662 161.662 32.1234C161.703 32.1806 161.784 32.2133 161.897 32.2133C161.986 32.2133 162.068 32.2051 162.165 32.1806V32.2051ZM160.746 26.8853V25.8638H161.613V26.8853H160.746Z" fill="#7B848C"/>
<path d="M167.453 28.6177C167.834 29.0099 168.02 29.6228 168.02 30.4564C168.02 31.2409 167.826 31.8456 167.453 32.2705C167.072 32.6873 166.553 32.8997 165.904 32.8997C165.255 32.8997 164.736 32.6873 164.355 32.2705C163.974 31.8537 163.787 31.249 163.787 30.4564C163.787 29.6228 163.974 29.0099 164.355 28.6177C164.736 28.2254 165.255 28.0293 165.904 28.0293C166.553 28.0293 167.072 28.2254 167.453 28.6177ZM164.866 31.723C165.06 32.058 165.409 32.2296 165.904 32.2296C166.398 32.2296 166.739 32.058 166.942 31.723C167.136 31.3879 167.234 30.963 167.234 30.4482C167.234 29.9334 167.136 29.4921 166.942 29.1734C166.747 28.8547 166.407 28.6912 165.912 28.6912C165.417 28.6912 165.052 28.8547 164.866 29.1734C164.671 29.4921 164.574 29.917 164.574 30.4482C164.574 30.9794 164.671 31.3798 164.866 31.723Z" fill="#7B848C"/>
<path d="M172.765 32.7692V29.6394C172.765 29.3452 172.716 29.1082 172.619 28.9448C172.522 28.7813 172.327 28.6996 172.027 28.6996C171.751 28.6996 171.459 28.7895 171.167 28.9611C170.867 29.1327 170.624 29.3125 170.446 29.5086V32.7774H169.667V28.193H170.34L170.437 28.7405C170.673 28.5444 170.932 28.3728 171.208 28.242C171.484 28.1113 171.808 28.0459 172.157 28.0459C172.627 28.0459 172.976 28.1766 173.203 28.4381C173.43 28.6996 173.544 29.0428 173.544 29.4678V32.7855H172.765V32.7692Z" fill="#7B848C"/>
</g>
</svg>
