<svg width="145" height="30" viewBox="0 0 145 30" fill="none" xmlns="http://www.w3.org/2000/svg">
<path d="M10.5404 11.4043L7.81442 20.4909L5.09887 11.4043H2L6.4556 25.0269H9.1816L13.656 11.4043H10.5404Z" fill="white"/>
<path d="M14.958 11.4043H17.684V25.0269H14.958V11.4043Z" fill="white"/>
<mask id="mask0_122_254" style="mask-type:luminance" maskUnits="userSpaceOnUse" x="2" y="4" width="141" height="22">
<path d="M2 4.27734H143V25.7229H2V4.27734Z" fill="white"/>
</mask>
<g mask="url(#mask0_122_254)">
<path d="M19.4132 15.4892C19.4093 14.9437 19.5193 14.4034 19.7359 13.9027C20.1558 12.926 20.9346 12.1476 21.9115 11.7282C22.4121 11.5111 22.9524 11.4009 23.498 11.4044H29.7448V14.1314H23.498C23.3193 14.1299 23.142 14.164 22.9766 14.2317C22.8112 14.2994 22.6609 14.3993 22.5345 14.5257C22.4081 14.6521 22.3082 14.8024 22.2405 14.9678C22.1728 15.1332 22.1387 15.3105 22.1402 15.4892C22.1391 15.6733 22.1746 15.8558 22.2447 16.0261C22.3116 16.1894 22.4103 16.3378 22.535 16.4626C22.6616 16.5889 22.812 16.6888 22.9775 16.7564C23.143 16.824 23.3203 16.858 23.499 16.8564H26.225C26.7714 16.8515 27.313 16.9581 27.8168 17.1697C28.799 17.5819 29.5802 18.3631 29.9924 19.3453C30.2026 19.8487 30.3108 20.3889 30.3108 20.9344C30.3108 21.48 30.2026 22.0201 29.9924 22.5235C29.7867 23.0079 29.4899 23.4483 29.1182 23.8207C28.7442 24.1936 28.3025 24.4917 27.8168 24.6991C27.3143 24.9159 26.7723 25.0261 26.225 25.0229H20.1735V22.3H26.225C26.5852 22.3 26.9305 22.157 27.1851 21.9023C27.4398 21.6477 27.5828 21.3024 27.5828 20.9423C27.5828 20.5822 27.4398 20.2368 27.1851 19.9822C26.9305 19.7275 26.5852 19.5845 26.225 19.5845H23.499C22.9535 19.588 22.4131 19.4777 21.9125 19.2607C20.9339 18.8411 20.1547 18.0604 19.737 17.0809C19.5205 16.5784 19.4096 16.0364 19.4132 15.4892Z" fill="white"/>
<path d="M32.0947 11.4043H34.8207V25.027H32.0947V11.4043Z" fill="white"/>
<path d="M43.0656 25.027H40.3501V14.1313H36.2559V11.4053H47.1505V14.1313H43.0656V25.027Z" fill="white"/>
<path d="M53.5002 25.2735H49.3496V4.53711H53.5002V14.9064L61.2229 4.53711H65.9375L59.3867 13.2865L65.9375 25.2746H61.2229L56.668 16.8877L53.5013 21.125L53.5002 25.2735Z" fill="white"/>
<path d="M87.4982 14.9931C87.5011 15.9535 87.3721 16.9097 87.1149 17.835C86.8657 18.7303 86.5035 19.5902 86.037 20.3939C85.5746 21.1891 85.0107 21.9208 84.3596 22.5705C83.7102 23.2211 82.9814 23.7871 82.1903 24.2552C80.957 24.9776 79.5915 25.4457 78.1744 25.6319C76.7573 25.8181 75.3172 25.7186 73.9392 25.3394C72.1478 24.8404 70.5156 23.8874 69.2007 22.5725C67.8858 21.2576 66.9327 19.6254 66.4338 17.834C65.9231 15.9717 65.9231 14.0062 66.4338 12.1439C66.6811 11.2466 67.0456 10.3859 67.5179 9.58389C67.9865 8.79131 68.5533 8.06105 69.2047 7.4104C69.855 6.76159 70.5866 6.19987 71.3813 5.73929C72.1853 5.27223 73.0455 4.90967 73.9413 4.66038C75.8036 4.14967 77.7691 4.14967 79.6314 4.66038C81.4204 5.15227 83.0507 6.10068 84.3626 7.41259C85.6746 8.72451 86.623 10.3549 87.1149 12.1439C87.3718 13.0714 87.5008 14.0296 87.4982 14.9921M83.3768 14.9921C83.3809 14.1099 83.2031 13.2363 82.8546 12.4259C82.1883 10.8437 80.9295 9.58484 79.3473 8.91858C78.534 8.5749 77.6599 8.39783 76.7769 8.39783C75.894 8.39783 75.0199 8.5749 74.2066 8.91858C73.4251 9.25256 72.7135 9.73092 72.1093 10.3286C71.5071 10.9293 71.0265 11.6408 70.6941 12.4238C70.3456 13.2342 70.1678 14.1078 70.1719 14.99C70.1667 15.8679 70.3446 16.7372 70.6941 17.5426C71.3719 19.1195 72.6303 20.3753 74.2087 21.0498C75.0221 21.3932 75.8961 21.5701 76.779 21.5701C77.662 21.5701 78.536 21.3932 79.3494 21.0498C80.1329 20.7169 80.8447 20.2356 81.4456 19.6325C82.0417 19.0302 82.5199 18.3217 82.8556 17.5436C83.2051 16.7383 83.383 15.8689 83.3778 14.991" fill="white"/>
<path d="M94.3684 25.2746H90.2178V4.53714H98.5138C99.255 4.53521 99.993 4.63502 100.707 4.83376C101.399 5.02515 102.062 5.30604 102.681 5.66932C103.294 6.03146 103.859 6.46978 104.363 6.97383C105.38 7.99102 106.117 9.25385 106.503 10.6399C106.888 12.04 106.898 13.517 106.531 14.9221C106.355 15.5921 106.098 16.2382 105.765 16.8459C105.432 17.4551 105.021 18.0188 104.543 18.5233C104.062 19.0337 103.518 19.4808 102.923 19.8539L105.221 25.2767H100.811L99.0026 21.0989L94.3611 21.1271L94.3684 25.2746ZM94.3684 8.68776V16.9869H98.5138C99.0652 16.9903 99.6114 16.8797 100.118 16.6621C100.609 16.4517 101.056 16.1497 101.434 15.7723C101.813 15.3925 102.115 14.9431 102.323 14.4489C102.538 13.9385 102.649 13.3902 102.649 12.8363C102.649 12.2824 102.538 11.7342 102.323 11.2237C102.115 10.7295 101.813 10.2802 101.434 9.90036C101.056 9.5229 100.609 9.2209 100.118 9.01049C99.6114 8.79272 99.0652 8.68212 98.5138 8.68567L94.3684 8.68776Z" fill="white"/>
<path d="M123.738 25.2735H109.523V4.53711H123.738V8.68669H113.674V12.8373H120.485V16.9869H113.674V21.1229H123.738V25.2735Z" fill="white"/>
<path d="M143 25.2741H138.849V21.1235H130.549V25.2741H126.413V12.8379C126.406 11.7271 126.627 10.6267 127.064 9.60532C127.483 8.62102 128.086 7.72537 128.84 6.96601C129.594 6.21003 130.488 5.60711 131.472 5.19045C132.495 4.76115 133.594 4.54004 134.704 4.54004C135.813 4.54004 136.912 4.76115 137.936 5.19045C139.926 6.03346 141.51 7.61795 142.353 9.60845C142.789 10.6298 143.011 11.7302 143.003 12.841L143 25.2741ZM138.849 16.9864V12.8379C138.853 12.2838 138.742 11.7349 138.525 11.2253C138.104 10.2267 137.31 9.43235 136.311 9.01207C135.801 8.79732 135.253 8.6867 134.699 8.6867C134.145 8.6867 133.597 8.79732 133.086 9.01207C132.088 9.43238 131.294 10.2268 130.874 11.2253C130.657 11.7349 130.546 12.2838 130.549 12.8379V16.9864H138.849Z" fill="white"/>
</g>
</svg>
