<svg width="204" height="30" viewBox="0 0 204 30" fill="none" xmlns="http://www.w3.org/2000/svg">
<g clip-path="url(#clip0_121_213)">
<mask id="mask0_121_213" style="mask-type:luminance" maskUnits="userSpaceOnUse" x="0" y="0" width="204" height="30">
<path d="M204 0H0V30H204V0Z" fill="white"/>
</mask>
<g mask="url(#mask0_121_213)">
<path d="M23.8213 24.2553C23.0219 25.0532 21.9028 25.5319 20.6238 25.5319C19.3448 25.5319 18.3856 25.0532 17.4263 24.2553C16.4671 23.4574 16.1473 22.3404 16.1473 21.0638C16.1473 19.7872 16.627 18.8298 17.4263 17.8723C17.906 17.3936 18.3856 17.0745 19.0251 16.9149C19.5047 16.7553 19.9843 16.5957 20.6238 16.5957C21.9028 16.5957 22.8621 17.0745 23.8213 17.8723C23.9812 18.0319 24.1411 18.1915 24.1411 18.3511C24.1411 18.3511 24.1411 18.5106 24.3009 18.5106C24.3009 18.5106 24.3009 18.5106 24.3009 18.6702C24.4608 18.9894 24.6207 19.1489 24.7806 19.4681C24.9404 19.9468 25.1003 20.5851 25.1003 21.2234C25.1003 22.3404 24.7806 23.2979 23.8213 24.2553ZM29.2571 11.3298C30.0564 10.5319 31.1755 10.0532 32.4545 10.0532C33.7335 10.0532 34.6928 10.5319 35.652 11.3298C36.4514 12.1277 36.931 13.2447 36.931 14.5213C36.931 15.3191 36.7712 15.9574 36.4514 16.5957C36.4514 16.5957 36.4514 16.5957 36.4514 16.7553C36.4514 16.9149 36.2915 16.9149 36.2915 17.0745C36.2915 17.0745 36.2915 17.0745 36.2915 17.234C36.2915 17.3936 36.1317 17.3936 36.1317 17.5532C35.9718 17.7128 35.9718 17.7128 35.8119 17.8723C35.0125 18.6702 33.8934 19.1489 32.6144 19.1489C31.3354 19.1489 30.3762 18.6702 29.4169 17.8723C29.2571 17.7128 29.0972 17.5532 29.0972 17.3936C29.0972 17.3936 29.0972 17.234 28.9373 17.234V17.0745C28.7774 16.7553 28.6176 16.5957 28.4577 16.4362C28.1379 15.9574 28.1379 15.3191 28.1379 14.6809C27.9781 13.2447 28.2978 12.1277 29.2571 11.3298ZM49.721 10.0532C51 10.0532 51.9592 10.5319 52.9185 11.3298C53.2382 11.6489 53.3981 11.8085 53.558 12.1277L57.395 9.89362C57.0752 9.25532 56.5956 8.61702 56.116 8.1383C55.3166 7.34043 54.3574 6.70213 53.2382 6.2234C52.1191 5.74468 51 5.58511 49.721 5.58511C48.6019 5.58511 47.3229 5.74468 46.2038 6.2234C45.0846 6.70213 44.1254 7.34043 43.326 8.1383C42.5266 8.93617 41.8871 9.89362 41.4075 11.0106C41.2477 11.3298 41.0878 11.8085 41.0878 12.1277C40.9279 11.8085 40.9279 11.3298 40.768 11.0106C40.2884 9.89362 39.6489 8.93617 38.8495 8.1383C38.0502 7.34043 37.0909 6.70213 35.9718 6.2234C34.8527 5.74468 33.7335 5.58511 32.4545 5.58511C31.3354 5.58511 30.0564 5.74468 28.9373 6.2234C28.6176 6.38298 28.2978 6.54255 27.8182 6.70213V0H23.3417V12.6064H23.1818C23.0219 12.6064 22.7022 12.4468 22.5423 12.4468H22.3824H22.2226C21.7429 12.2872 21.2633 12.2872 20.7837 12.2872C20.3041 12.2872 19.9843 12.2872 19.5047 12.4468C18.7053 12.6064 18.0658 12.766 17.2665 13.0851C16.3072 13.4043 15.5078 14.0426 14.7085 14.6809C14.5486 14.5213 14.3887 14.5213 14.2288 14.6809L14.069 14.8404C13.5893 15.3191 13.1097 15.9574 12.79 16.4362L8.95298 13.4043L17.906 4.46809H11.8307L4.47649 11.3298V0H0V22.5H4.47649V15.6383L11.6708 21.2234C11.6708 22.3404 11.8307 23.4574 12.3103 24.5745C12.79 25.5319 13.4295 26.6489 14.2288 27.4468C15.0282 28.2447 15.9875 28.883 17.1066 29.3617C18.2257 29.8404 19.3448 30 20.6238 30C21.7429 30 23.0219 29.8404 24.1411 29.3617C25.2602 28.883 26.2194 28.2447 27.0188 27.4468C27.8182 26.6489 28.4577 25.6915 28.9373 24.5745C29.0972 24.0957 29.2571 23.617 29.4169 23.1383C29.4169 23.1383 29.4169 23.1383 29.4169 22.9787C30.3762 23.2979 31.3354 23.4574 32.4545 23.4574C33.5737 23.4574 34.8527 23.2979 35.9718 22.8191C37.0909 22.3404 38.0502 21.7021 38.8495 20.9043C39.0094 20.7447 39.1693 20.5851 39.3292 20.266C39.8088 19.6277 40.2884 18.8298 40.6082 18.0319C40.768 17.7128 40.9279 17.234 40.9279 16.9149C41.0878 17.234 41.0878 17.7128 41.2477 18.0319C41.7273 19.1489 42.3668 20.1064 43.1661 20.9043C43.9655 21.7021 44.9248 22.3404 46.0439 22.8191C47.163 23.2979 48.2821 23.4574 49.5611 23.4574C50.6803 23.4574 51.9593 23.2979 53.0784 22.8191C54.1975 22.3404 55.1567 21.7021 55.9561 20.9043C56.4357 20.4255 56.9154 19.7872 57.2351 19.1489L53.3981 16.9149C53.2383 17.234 52.9185 17.5532 52.7586 17.7128C51.9593 18.5106 50.8401 18.9894 49.5611 18.9894C48.2821 18.9894 47.3229 18.5106 46.3636 17.7128C45.5643 16.9149 45.0846 15.7979 45.0846 14.5213C45.0846 13.2447 45.5643 12.2872 46.3636 11.3298C47.4828 10.3723 48.442 10.0532 49.721 10.0532Z" fill="white"/>
<path d="M78.1806 6.86133H75.7825V20.106H67.9486C67.7887 20.106 67.7887 20.106 67.7887 20.106C67.7887 20.106 67.7887 19.9464 67.7887 19.7868V16.2762H65.3906V20.4251C65.3906 20.9038 65.5505 21.3826 65.8702 21.7017C66.19 22.0209 66.6696 22.1804 67.1492 22.1804H78.1806V14.2017H80.7386V12.1273H78.1806V6.86133Z" fill="white"/>
<path d="M67.6263 9.89406C67.9461 9.57491 68.4257 9.25576 69.0652 9.25576C69.7047 9.25576 70.0245 9.41533 70.5041 9.89406C70.8238 10.2132 70.9837 10.8515 70.9837 11.4898C70.9837 12.1281 70.8238 12.6068 70.5041 13.0855C70.1843 13.4047 69.7047 13.7238 69.0652 13.7238C68.4257 13.7238 67.9461 13.5642 67.6263 13.0855C67.3066 12.7664 67.1467 12.1281 67.1467 11.4898C66.9868 10.8515 67.1467 10.3727 67.6263 9.89406ZM64.5887 11.4898C64.5887 12.7664 65.0683 13.7238 65.8677 14.5217C66.1875 14.8408 66.6671 15.16 67.1467 15.4791C67.6263 15.6387 68.2658 15.7983 68.9053 15.7983C69.5448 15.7983 70.1843 15.6387 70.664 15.4791C71.1436 15.3196 71.6232 15.0004 71.9429 14.5217C72.7423 13.7238 73.2219 12.7664 73.2219 11.4898C73.2219 11.1706 73.2219 10.8515 73.0621 10.3727C72.9022 10.0536 72.9022 9.73448 72.5825 9.41533H73.7016V7.34086H70.0245V5.74512H67.6263V7.34086H63.9492V9.41533H65.0683C64.9085 9.73448 64.7486 10.0536 64.5887 10.3727C64.7486 10.6919 64.5887 11.1706 64.5887 11.4898Z" fill="white"/>
<path d="M96.8842 8.61704C96.8842 8.45747 96.8842 8.13832 96.7244 7.97874C96.5645 7.81917 96.5645 7.50002 96.4046 7.34045C96.2447 7.18087 96.0849 7.0213 95.7651 6.86172C95.6052 6.70215 95.2855 6.70215 94.9658 6.70215H82.8153V8.77662H94.0065C94.1664 8.77662 94.3263 8.93619 94.3263 9.09577V11.8085H82.1758V13.883H88.5708V16.5957H82.8153V18.6702H94.0065C94.1664 18.6702 94.3263 18.8298 94.3263 18.9894V22.3404H96.7244V18.8298C96.7244 18.5106 96.7244 18.3511 96.5645 18.1915C96.4046 18.0319 96.4046 17.7128 96.2447 17.5532C96.0849 17.3936 95.925 17.234 95.6052 17.0745C95.4454 16.9149 95.1256 16.9149 94.8059 16.9149H91.1288V14.2021H97.6836V12.1277H96.8842V8.61704Z" fill="white"/>
<path d="M105.517 11.4898C105.517 11.8089 105.677 12.1281 105.677 12.6068C105.677 13.4047 105.517 14.043 105.197 14.6813C104.878 15.16 104.558 15.4791 104.078 15.4791C103.599 15.4791 103.119 15.16 102.959 14.6813C102.639 14.2025 102.48 13.4047 102.48 12.6068C102.48 11.8089 102.639 11.1706 102.959 10.5323C103.279 10.0536 103.599 9.73448 104.078 9.73448C104.398 9.73448 104.558 9.73448 104.718 9.89406C104.878 10.0536 105.038 10.2132 105.197 10.5323C105.357 10.8515 105.517 11.011 105.517 11.4898ZM105.197 5.74512H102.799V7.34086H99.7617V9.41533H100.881C100.561 9.73448 100.401 10.2132 100.241 10.8515C100.081 11.3302 99.9216 11.9685 99.9216 12.6068C99.9216 13.2451 100.081 14.043 100.241 14.5217C100.401 15.16 100.721 15.6387 101.041 16.1174C101.36 16.5962 101.84 16.9153 102.32 17.0749C102.799 17.394 103.279 17.394 103.918 17.394C104.558 17.394 105.038 17.2345 105.517 17.0749C105.997 16.7557 106.476 16.4366 106.796 16.1174C107.116 15.6387 107.436 15.16 107.596 14.5217C107.755 13.8834 107.915 13.2451 107.915 12.6068C107.915 11.9685 107.915 11.4898 107.755 10.8515C107.596 10.3728 107.436 9.89406 107.116 9.41533H108.235V7.34086H105.197V5.74512Z" fill="white"/>
<path d="M112.552 12.1273H111.273V6.86133H108.875V22.34H111.273V14.2017H112.552V22.34H114.95V6.86133H112.552V12.1273Z" fill="white"/>
<path d="M130.617 6.86133H128.219V14.84H130.617V13.5634H133.175V11.489H130.617V10.0528H133.175V7.97836H130.617V6.86133Z" fill="white"/>
<path d="M138.293 16.5957H135.895V20.4255C135.895 20.9042 136.054 21.383 136.374 21.7021C136.694 22.0213 137.174 22.1808 137.813 22.1808H149.324V20.1064H138.453V16.5957H138.293Z" fill="white"/>
<path d="M139.41 12.7655C139.729 13.5634 140.369 14.2017 141.168 14.6804C141.968 15.1592 143.087 15.4783 144.206 15.4783V13.4038C143.087 13.2443 142.287 12.7655 141.648 12.1273C141.008 11.3294 140.689 10.3719 140.689 8.9358H143.886V6.86133H134.773V8.9358H138.131C138.131 10.2124 137.811 11.3294 137.171 11.9677C136.532 12.7655 135.732 13.0847 134.613 13.2443V15.3187C135.732 15.3187 136.692 14.9996 137.651 14.5209C138.45 14.2017 139.09 13.5634 139.41 12.7655Z" fill="white"/>
<path d="M149.164 6.86133H146.766V17.2336H149.164V6.86133Z" fill="white"/>
<path d="M158.436 9.41533C158.755 9.09618 159.235 8.93661 159.715 8.93661C160.194 8.93661 160.674 9.09618 160.994 9.41533C161.313 9.73448 161.473 10.0536 161.473 10.5323C161.473 11.011 161.313 11.4898 160.994 11.6493C160.674 11.9685 160.194 12.1281 159.715 12.1281C159.235 12.1281 158.755 11.9685 158.436 11.6493C158.116 11.3302 157.956 11.011 157.956 10.5323C157.956 10.0536 158.116 9.73448 158.436 9.41533ZM155.558 10.5323C155.558 11.011 155.718 11.4898 155.878 11.9685C156.038 12.4472 156.357 12.7664 156.677 13.0855C157.476 13.7238 158.436 14.043 159.715 14.043C160.994 14.043 161.953 13.7238 162.752 13.0855C163.072 12.7664 163.392 12.4472 163.552 11.9685C163.712 11.4898 163.871 11.011 163.871 10.5323C163.871 10.2132 163.871 10.0536 163.712 9.73448C163.712 9.41533 163.552 9.25576 163.392 8.93661H166.589V7.18129H160.994V5.74512H158.596V7.18129H153V9.09618H156.197C155.718 9.57491 155.558 10.0536 155.558 10.5323Z" fill="white"/>
<path d="M180.017 19.7872C179.857 20.1064 179.697 20.2659 179.537 20.5851C179.377 20.7447 179.058 20.9042 178.738 21.0638C178.418 21.2234 178.098 21.2234 177.619 21.2234C177.139 21.2234 176.819 21.2234 176.5 21.0638C176.18 20.9042 175.86 20.7447 175.7 20.5851C175.54 20.4255 175.221 20.1064 175.221 19.7872C175.061 19.4681 175.061 19.1489 175.061 18.8298C175.061 18.5106 175.061 18.1915 175.221 17.8723C175.38 17.5532 175.54 17.3936 175.7 17.0745C175.86 16.9149 176.18 16.7553 176.5 16.5957C176.819 16.4362 177.139 16.4362 177.619 16.4362C177.938 16.4362 178.418 16.4362 178.738 16.5957C179.058 16.7553 179.377 16.9149 179.537 17.0745C179.697 17.234 180.017 17.5532 180.017 17.8723C180.177 18.1915 180.177 18.5106 180.177 18.8298C180.177 19.1489 180.177 19.4681 180.017 19.7872ZM184.333 8.61704C184.333 8.45747 184.333 8.13832 184.174 7.97874C184.014 7.81917 184.014 7.50002 183.854 7.34045C183.694 7.18087 183.534 7.0213 183.214 6.86172C183.054 6.70215 182.735 6.70215 182.415 6.70215H170.265V8.77662H181.456C181.616 8.77662 181.775 8.93619 181.775 9.09577V13.2447H177.139V10.6915H174.741V13.4042H169.625V15.4787H173.782C173.622 15.4787 173.622 15.6383 173.462 15.7979C172.982 16.117 172.663 16.5957 172.343 17.234C172.023 17.7128 172.023 18.3511 172.023 18.9894C172.023 19.6277 172.183 20.2659 172.343 20.7447C172.663 21.2234 172.982 21.7021 173.462 22.0213C173.942 22.3404 174.421 22.6596 175.221 22.9787C175.86 23.1383 176.659 23.2979 177.299 23.2979C178.098 23.2979 178.738 23.1383 179.377 22.9787C180.017 22.8191 180.656 22.5 181.136 22.0213C181.616 21.7021 181.935 21.2234 182.255 20.7447C182.575 20.2659 182.575 19.6277 182.575 18.9894C182.575 18.1915 182.415 17.5532 182.095 17.0745C181.775 16.5957 181.296 16.117 180.816 15.7979H184.973V13.4042H184.174V8.61704H184.333Z" fill="white"/>
<path d="M201.441 12.1273V6.86133H199.043V22.34H201.441V14.2017H203.999V12.1273H201.441Z" fill="white"/>
<path d="M193.769 13.8826C193.449 12.9251 193.129 11.6485 193.129 10.0528V6.86133H190.571V10.0528C190.571 11.6485 190.411 12.9251 189.932 13.8826C189.292 15.3187 188.173 16.2762 186.734 16.7549V18.989C188.013 18.6698 189.132 18.1911 190.092 17.5528C190.891 16.9145 191.531 16.2762 191.85 15.3187C192.01 15.7975 192.33 16.1166 192.65 16.5953C192.969 16.9145 193.289 17.2336 193.769 17.5528C194.728 18.1911 195.847 18.8294 197.126 18.989V16.7549C195.527 16.2762 194.408 15.3187 193.769 13.8826Z" fill="white"/>
<path d="M119.745 12.2872C119.425 11.9681 119.265 11.3298 119.265 10.8511C119.265 10.2128 119.425 9.73406 119.745 9.41491C120.064 9.09577 120.544 8.77662 121.184 8.77662C121.823 8.77662 122.303 8.93619 122.622 9.41491C122.942 9.73406 123.102 10.2128 123.102 10.8511C123.102 11.4894 122.942 11.9681 122.622 12.2872C122.303 12.6064 121.823 12.9255 121.184 12.9255C120.544 12.9255 120.064 12.6064 119.745 12.2872ZM122.942 14.6808C123.422 14.5213 123.901 14.2021 124.381 13.7234C124.861 13.4042 125.021 12.9255 125.34 12.4468C125.5 11.9681 125.66 11.3298 125.66 10.8511C125.66 10.2128 125.5 9.73406 125.34 9.25534C125.18 8.77662 124.861 8.29789 124.381 7.97874C124.061 7.6596 123.582 7.34045 122.942 7.0213C122.463 6.86172 121.823 6.70215 121.184 6.70215C120.544 6.70215 119.905 6.70215 119.425 6.86172C118.945 7.0213 118.466 7.34045 117.986 7.81917C117.666 8.13832 117.347 8.61704 117.027 9.09577C116.867 9.57449 116.707 10.2128 116.707 10.8511C116.707 11.4894 116.867 11.9681 117.027 12.4468C117.187 12.9255 117.506 13.4042 117.986 13.7234C118.306 14.0425 118.785 14.3617 119.425 14.6808C119.905 14.8404 120.544 15 121.184 15C121.823 15 122.463 14.8404 122.942 14.6808Z" fill="white"/>
<path d="M127.898 19.9468C127.738 20.266 127.578 20.4255 127.418 20.5851C127.258 20.7447 126.939 20.9043 126.619 21.0638C126.299 21.2234 125.979 21.2234 125.66 21.2234C125.34 21.2234 125.02 21.2234 124.7 21.0638C124.381 20.9043 124.221 20.7447 123.901 20.5851C123.741 20.4255 123.581 20.1064 123.421 19.9468C123.261 19.6277 123.261 19.3085 123.261 18.9894C123.261 18.6702 123.261 18.3511 123.421 18.0319C123.581 17.7128 123.741 17.5532 123.901 17.3936C124.061 17.234 124.381 17.0745 124.7 16.9149C125.02 16.7553 125.34 16.7553 125.66 16.7553C125.979 16.7553 126.299 16.7553 126.619 16.9149C126.939 17.0745 127.258 17.234 127.418 17.3936C127.578 17.5532 127.738 17.8723 127.898 18.0319C128.058 18.3511 128.058 18.6702 128.058 18.9894C128.058 19.3085 128.058 19.6277 127.898 19.9468ZM128.697 15.7979C128.218 15.4787 127.738 15.3191 127.258 15.1596C126.779 15 126.299 15 125.66 15C125.02 15 124.381 15.1596 123.741 15.3192C123.102 15.4787 122.622 15.7979 122.142 16.117C121.663 16.4362 121.343 16.9149 121.183 17.3936C121.023 17.8723 120.863 18.3511 120.863 18.9894C120.863 19.6277 121.023 20.1064 121.183 20.5851C121.343 21.0638 121.823 21.5426 122.142 21.8617C122.622 22.1809 123.102 22.5 123.741 22.6596C124.381 22.8191 125.02 22.9787 125.66 22.9787C126.299 22.9787 126.939 22.8191 127.578 22.6596C128.218 22.5 128.697 22.1809 129.177 21.8617C129.656 21.5426 129.976 21.0638 130.136 20.5851C130.296 20.1064 130.456 19.6277 130.456 18.9894C130.456 18.3511 130.296 17.7128 129.976 17.0745C129.656 16.5957 129.177 16.117 128.697 15.7979Z" fill="white"/>
<path d="M161.955 20.106C161.795 20.4251 161.635 20.5847 161.475 20.7443C161.315 20.9038 160.996 21.0634 160.676 21.223C160.356 21.3826 160.036 21.3826 159.717 21.3826C159.397 21.3826 159.077 21.3826 158.757 21.223C158.438 21.0634 158.278 20.9038 157.958 20.7443C157.798 20.5847 157.638 20.2656 157.478 20.106C157.319 19.7868 157.319 19.6273 157.319 19.3081C157.319 18.989 157.319 18.6698 157.478 18.5102C157.638 18.1911 157.798 18.0315 157.958 17.8719C158.118 17.7124 158.438 17.5528 158.757 17.3932C159.077 17.2336 159.397 17.2336 159.717 17.2336C160.036 17.2336 160.356 17.2336 160.676 17.3932C160.996 17.5528 161.156 17.7124 161.475 17.8719C161.635 18.0315 161.795 18.3507 161.955 18.5102C162.115 18.8294 162.115 18.989 162.115 19.3081C162.115 19.6273 161.955 19.9464 161.955 20.106ZM152.043 16.1166H156.999C156.679 16.2762 156.519 16.4358 156.359 16.5953C155.88 16.9145 155.56 17.3932 155.4 17.8719C155.24 18.3507 155.08 18.8294 155.08 19.3081C155.08 19.9464 155.24 20.4251 155.4 20.9038C155.56 21.3826 155.88 21.7017 156.359 22.0209C156.839 22.34 157.319 22.6592 157.798 22.8187C158.438 22.9783 159.077 23.1379 159.717 23.1379C160.356 23.1379 160.996 22.9783 161.635 22.8187C162.275 22.6592 162.754 22.34 163.074 22.0209C163.554 21.7017 163.873 21.223 164.033 20.9038C164.193 20.4251 164.353 19.9464 164.353 19.3081C164.353 18.6698 164.193 18.0315 163.873 17.5528C163.554 17.0741 163.074 16.5953 162.594 16.2762H162.435C162.435 16.2762 162.435 16.2762 162.275 16.2762H167.231V14.3613H151.883V16.1166H152.043Z" fill="white"/>
</g>
</g>
<defs>
<clipPath id="clip0_121_213">
<rect width="204" height="30" fill="white"/>
</clipPath>
</defs>
</svg>
