<svg width="135" height="24" viewBox="0 0 135 24" fill="none" xmlns="http://www.w3.org/2000/svg">
<g clip-path="url(#clip0_168_42)">
<path d="M8.177 8.55713L5.567 17.2571L2.967 8.55713H0L4.266 21.6001H6.876L11.16 8.55713H8.177Z" fill="black"/>
<path d="M12.4062 8.55713H15.0162V21.6001H12.4062V8.55713Z" fill="black"/>
<mask id="mask0_168_42" style="mask-type:luminance" maskUnits="userSpaceOnUse" x="0" y="1" width="135" height="22">
<path d="M0 1.73389H135V22.2669H0V1.73389Z" fill="white"/>
</mask>
<g mask="url(#mask0_168_42)">
<path d="M16.672 12.4692C16.6683 11.9469 16.7735 11.4295 16.981 10.9502C17.383 10.015 18.1286 9.26979 19.064 8.86818C19.5433 8.6604 20.0606 8.55482 20.583 8.55818H26.564V11.1692H20.583C20.4118 11.1677 20.2421 11.2003 20.0837 11.2652C19.9254 11.33 19.7815 11.4257 19.6605 11.5467C19.5394 11.6677 19.4437 11.8116 19.3789 11.97C19.3141 12.1284 19.2815 12.2981 19.283 12.4692C19.2819 12.6455 19.3159 12.8202 19.383 12.9832C19.447 13.1396 19.5415 13.2817 19.661 13.4012C19.7821 13.5221 19.9261 13.6177 20.0846 13.6825C20.243 13.7472 20.4128 13.7797 20.584 13.7782H23.194C23.7171 13.7735 24.2357 13.8755 24.718 14.0782C25.6584 14.4728 26.4064 15.2208 26.801 16.1612C27.0022 16.6432 27.1058 17.1603 27.1058 17.6827C27.1058 18.205 27.0022 18.7222 26.801 19.2042C26.604 19.6679 26.3199 20.0896 25.964 20.4462C25.6059 20.8032 25.183 21.0886 24.718 21.2872C24.2368 21.4947 23.7179 21.6003 23.194 21.5972H17.4V18.9902H23.194C23.5387 18.9902 23.8694 18.8532 24.1132 18.6094C24.357 18.3656 24.494 18.035 24.494 17.6902C24.494 17.3454 24.357 17.0147 24.1132 16.7709C23.8694 16.5271 23.5387 16.3902 23.194 16.3902H20.584C20.0616 16.3935 19.5443 16.288 19.065 16.0802C18.128 15.6784 17.3819 14.9309 16.982 13.9932C16.7747 13.512 16.6685 12.9931 16.672 12.4692Z" fill="black"/>
<path d="M28.8145 8.55811H31.4245V21.6011H28.8145V8.55811Z" fill="black"/>
<path d="M39.3179 21.6011H36.7178V11.1691H32.7979V8.55908H43.2289V11.1691H39.3179V21.6011Z" fill="black"/>
<path d="M49.309 21.8369H45.335V1.98291H49.309V11.9109L56.703 1.98291H61.217L54.945 10.3599L61.217 21.8379H56.703L52.342 13.8079L49.31 17.8649L49.309 21.8369Z" fill="black"/>
<path d="M81.8599 11.9941C81.8627 12.9136 81.7393 13.8292 81.4929 14.7151C81.2544 15.5723 80.9076 16.3956 80.4609 17.1651C80.0182 17.9265 79.4783 18.627 78.8549 19.2491C78.2332 19.872 77.5353 20.4139 76.7779 20.8621C75.5971 21.5537 74.2897 22.0019 72.9329 22.1802C71.5761 22.3584 70.1973 22.2632 68.8779 21.9001C67.1628 21.4224 65.6 20.5099 64.3411 19.251C63.0821 17.992 62.1696 16.4293 61.6919 14.7141C61.203 12.931 61.203 11.0492 61.6919 9.26611C61.9287 8.40703 62.2777 7.58293 62.7299 6.81511C63.1786 6.05626 63.7212 5.35707 64.3449 4.73411C64.9675 4.11291 65.668 3.57509 66.4289 3.13411C67.1987 2.68693 68.0223 2.33979 68.8799 2.10111C70.663 1.61213 72.5448 1.61213 74.3279 2.10111C76.0407 2.57206 77.6017 3.48012 78.8578 4.73621C80.1139 5.9923 81.022 7.55329 81.4929 9.26611C81.7389 10.1541 81.8624 11.0716 81.8599 11.9931M77.9139 11.9931C77.9178 11.1485 77.7476 10.3121 77.4139 9.53611C76.776 8.02124 75.5708 6.81602 74.0559 6.17811C73.2772 5.84906 72.4403 5.67952 71.5949 5.67952C70.7495 5.67952 69.9127 5.84906 69.1339 6.17811C68.3857 6.49787 67.7044 6.95588 67.1259 7.52811C66.5493 8.10328 66.0892 8.78443 65.7709 9.53411C65.4372 10.3101 65.267 11.1465 65.2709 11.9911C65.266 12.8317 65.4363 13.664 65.7709 14.4351C66.4199 15.945 67.6247 17.1473 69.1359 17.7931C69.9148 18.1219 70.7516 18.2913 71.5969 18.2913C72.4423 18.2913 73.2791 18.1219 74.0579 17.7931C74.8081 17.4743 75.4896 17.0135 76.0649 16.4361C76.6356 15.8594 77.0935 15.1811 77.4149 14.4361C77.7496 13.665 77.9199 12.8327 77.9149 11.9921" fill="black"/>
<path d="M88.4379 21.8379H84.4639V1.98294H92.4069C93.1166 1.98109 93.8232 2.07665 94.5069 2.26694C95.169 2.45018 95.8044 2.71912 96.3969 3.06694C96.9841 3.41367 97.5251 3.83334 98.0069 4.31594C98.9809 5.28985 99.6867 6.49893 100.056 7.82594C100.425 9.16651 100.434 10.5806 100.083 11.9259C99.9143 12.5675 99.6682 13.186 99.3499 13.7679C99.0302 14.3511 98.637 14.8909 98.1799 15.3739C97.7189 15.8626 97.1977 16.2906 96.6289 16.6479L98.8289 21.8399H94.6059L92.8749 17.8399L88.4309 17.8669L88.4379 21.8379ZM88.4379 5.95694V13.9029H92.4069C92.9348 13.9061 93.4577 13.8003 93.9429 13.5919C94.4131 13.3905 94.8408 13.1013 95.2029 12.7399C95.5654 12.3763 95.8544 11.9461 96.0539 11.4729C96.2597 10.9842 96.3657 10.4592 96.3657 9.92894C96.3657 9.39863 96.2597 8.87367 96.0539 8.38494C95.8544 7.91177 95.5654 7.48156 95.2029 7.11794C94.8408 6.75653 94.4131 6.46738 93.9429 6.26594C93.4578 6.05742 92.9348 5.95154 92.4069 5.95494L88.4379 5.95694Z" fill="black"/>
<path d="M116.558 21.8369H102.948V1.98291H116.558V5.95591H106.922V9.92991H113.443V13.9029H106.922V17.8629H116.558V21.8369Z" fill="black"/>
<path d="M135 21.8381H131.026V17.8641H123.079V21.8381H119.119V9.93106C119.112 8.86755 119.324 7.81396 119.742 6.83606C120.144 5.89365 120.721 5.03611 121.442 4.30906C122.165 3.58525 123.021 3.00799 123.962 2.60906C124.942 2.19803 125.994 1.98633 127.057 1.98633C128.119 1.98633 129.171 2.19803 130.151 2.60906C132.057 3.4162 133.574 4.93326 134.38 6.83906C134.799 7.81691 135.011 8.87053 135.003 9.93406L135 21.8381ZM131.026 13.9031V9.93106C131.029 9.40054 130.924 8.87503 130.715 8.38706C130.313 7.43103 129.552 6.67045 128.596 6.26806C128.108 6.06245 127.583 5.95654 127.052 5.95654C126.522 5.95654 125.997 6.06245 125.508 6.26806C124.553 6.67049 123.792 7.4311 123.39 8.38706C123.182 8.87502 123.076 9.40053 123.079 9.93106V13.9031H131.026Z" fill="black"/>
</g>
</g>
<defs>
<clipPath id="clip0_168_42">
<rect width="135" height="24" fill="white"/>
</clipPath>
</defs>
</svg>
