<svg width="180" height="36" viewBox="0 0 180 36" fill="none" xmlns="http://www.w3.org/2000/svg">
<g clip-path="url(#clip0_121_110)">
<mask id="mask0_121_110" style="mask-type:luminance" maskUnits="userSpaceOnUse" x="0" y="0" width="180" height="36">
<path d="M180 0H0V36H180V0Z" fill="white"/>
</mask>
<g mask="url(#mask0_121_110)">
<path d="M7.88774 22.0892V2.44595L0 0V22.0892C0 27.7207 4.5535 32.3353 10.1106 32.3353C11.5123 32.3353 12.8394 32.0411 14.0586 31.5199C10.4424 29.9565 7.89602 26.3087 7.89602 22.0892H7.88774Z" fill="#5B6670"/>
<path d="M20.2211 6.26231V22.0895C20.2211 26.309 17.6749 29.9485 14.0586 31.5203C15.2696 32.0499 16.6049 32.3356 18.0066 32.3356C23.5637 32.3356 28.1172 27.7211 28.1172 22.0895V8.69983L20.2294 6.25391L20.2211 6.26231Z" fill="#71A850"/>
<path d="M37.2988 17.8777C38.9493 17.8777 40.4174 17.8777 41.7113 17.8525C43.0052 17.8356 44.1664 17.8188 45.1866 17.7852C46.2151 17.76 47.1191 17.718 47.9071 17.6759C48.695 17.6339 49.4083 17.5751 50.0553 17.4995L50.246 19.8529C49.6323 19.9286 48.919 19.9874 48.1061 20.0378C47.2933 20.0883 46.3643 20.1303 45.311 20.1555C44.2576 20.1892 43.0716 20.2059 41.7444 20.2228C40.4174 20.2396 38.9328 20.248 37.2905 20.248V17.8777H37.2988ZM43.4696 15.3729C42.6651 15.3729 41.9352 15.2468 41.2717 15.0031C40.6081 14.7593 40.0359 14.4231 39.5631 14.0028C39.0904 13.5826 38.7171 13.0951 38.46 12.5487C38.1946 11.994 38.0619 11.414 38.0619 10.8088V9.93463C38.0619 9.32104 38.1946 8.74108 38.46 8.19475C38.7254 7.63999 39.0904 7.16089 39.5631 6.74062C40.0359 6.32036 40.6081 5.98414 41.2717 5.74039C41.9352 5.49663 42.6734 5.37055 43.4696 5.37055C44.2659 5.37055 45.0041 5.49663 45.6759 5.74039C46.3394 5.98414 46.9117 6.32036 47.3845 6.74062C47.8572 7.16089 48.2222 7.64841 48.4876 8.19475C48.7531 8.74951 48.8858 9.32947 48.8858 9.93463V10.8088C48.8858 11.4224 48.7531 12.0023 48.4876 12.5487C48.2222 13.1034 47.8572 13.5826 47.3845 14.0028C46.9117 14.4231 46.3394 14.7593 45.6759 15.0031C45.0124 15.2468 44.2742 15.3729 43.4696 15.3729ZM43.4696 7.70723C43.0384 7.70723 42.6486 7.77448 42.3002 7.9174C41.9518 8.05183 41.6449 8.23679 41.3961 8.45531C41.1473 8.67383 40.9566 8.92598 40.8239 9.20339C40.6911 9.48916 40.6331 9.78335 40.6331 10.086V10.6491C40.6331 10.9517 40.6994 11.2459 40.8239 11.5317C40.9566 11.8174 41.139 12.0612 41.3961 12.2797C41.6449 12.4983 41.9435 12.6748 42.3002 12.8177C42.6486 12.9521 43.0384 13.0278 43.4696 13.0278C43.901 13.0278 44.2908 12.9606 44.6391 12.8177C44.9875 12.6832 45.2944 12.4983 45.5432 12.2797C45.792 12.0612 45.9828 11.809 46.1155 11.5317C46.2482 11.2459 46.3063 10.9517 46.3063 10.6491V10.086C46.3063 9.78335 46.2399 9.48916 46.1155 9.20339C45.9828 8.91763 45.8004 8.67383 45.5432 8.45531C45.2944 8.23679 44.9958 8.06025 44.6391 7.9174C44.2908 7.78291 43.901 7.70723 43.4696 7.70723ZM53.7793 24.3582H51.092V4.11816H53.7793V24.3666V24.3582Z" fill="white"/>
<path d="M58.5902 5.33693H68.8998V7.66519H65.1841V8.99323C65.1841 9.25379 65.2006 9.49759 65.2421 9.71611C65.2753 9.93463 65.35 10.1448 65.4577 10.3465C65.5656 10.5482 65.7066 10.75 65.889 10.9433C66.0715 11.1366 66.3037 11.3468 66.5858 11.5653C67.0419 11.9099 67.5313 12.2713 68.0455 12.6328C68.5598 12.9942 69.0906 13.3472 69.638 13.7002L68.2031 15.6419C67.241 15.0031 66.3618 14.3895 65.5572 13.7927C65.1011 13.4565 64.7362 13.1791 64.4624 12.9437C64.1887 12.7084 64.0311 12.5403 63.9897 12.4226H63.9648C63.9233 12.5571 63.7575 12.7588 63.4672 13.0446C63.1768 13.3304 62.787 13.6666 62.2894 14.0532C61.8332 14.4315 61.3604 14.8013 60.8793 15.1712C60.3983 15.541 59.8841 15.9193 59.3449 16.2891L57.7524 14.2886C58.4409 13.8263 59.0878 13.3556 59.6933 12.8765C60.2988 12.3974 60.8379 11.9519 61.294 11.5484C61.6673 11.2123 61.9576 10.8424 62.165 10.4306C62.3723 10.0187 62.4718 9.53956 62.4718 9.00165V7.67361H58.5819V5.34534L58.5902 5.33693ZM68.0455 24.9718C67.158 24.9718 66.3369 24.8877 65.5739 24.7112C64.8108 24.5347 64.1555 24.2825 63.5998 23.9463C63.0442 23.6101 62.6045 23.2067 62.2811 22.7275C61.9576 22.2484 61.8 21.7021 61.8 21.0969V20.1387C61.8 19.5335 61.9576 18.9872 62.2811 18.5081C62.6045 18.0289 63.0442 17.6255 63.5998 17.2893C64.1555 16.9531 64.8191 16.7009 65.5739 16.5244C66.3286 16.3479 67.158 16.2639 68.0455 16.2639C68.933 16.2639 69.7541 16.3479 70.5172 16.5244C71.272 16.7009 71.9355 16.9531 72.4913 17.2893C73.0471 17.6255 73.4863 18.0289 73.8103 18.5081C74.1336 18.9872 74.2913 19.5335 74.2913 20.1387V21.0969C74.2913 21.7021 74.1336 22.2484 73.8103 22.7275C73.4863 23.2067 73.0471 23.6101 72.4913 23.9463C71.9355 24.2825 71.272 24.5347 70.5172 24.7112C69.7541 24.8877 68.933 24.9718 68.0455 24.9718ZM68.0455 18.5081C67.5727 18.5081 67.1249 18.5585 66.6935 18.6509C66.2623 18.7434 65.8807 18.8779 65.5572 19.046C65.2255 19.2141 64.9601 19.4074 64.7611 19.6344C64.562 19.8613 64.4624 20.1051 64.4624 20.3656V20.8868C64.4624 21.1473 64.562 21.3911 64.7611 21.6181C64.9601 21.845 65.2255 22.0383 65.5572 22.2064C65.889 22.3745 66.2623 22.5006 66.6935 22.6014C67.1249 22.6939 67.5727 22.7444 68.0455 22.7444C68.5183 22.7444 68.9662 22.6939 69.3975 22.6014C69.8288 22.509 70.202 22.3745 70.5338 22.2064C70.8655 22.0383 71.131 21.845 71.33 21.6181C71.5291 21.3911 71.6286 21.1473 71.6286 20.8868V20.3656C71.6286 20.1051 71.5291 19.8613 71.33 19.6344C71.131 19.4074 70.8655 19.2141 70.5338 19.046C70.202 18.8779 69.8288 18.7518 69.3975 18.6509C68.9662 18.5585 68.5183 18.5081 68.0455 18.5081ZM71.5208 11.4308H68.3192V9.10252H71.5208V4.11816H74.225V16.1546H71.5208V11.4308Z" fill="white"/>
<path d="M96.6939 15.9112V18.2395H88.9136V24.3585H86.1848V18.2395H78.3887V15.9112H96.6939ZM94.2301 4.875V14.1041H80.8684V4.875H83.5727V7.37978H91.5179V4.875H94.2222H94.2301ZM91.5179 11.8262V9.69127H83.5727V11.8262H91.5179Z" fill="white"/>
<path d="M109.65 15.5411V19.4832H117.446V21.8114H99.1406V19.4832H106.938V15.5411H101.48V5.72363H114.842V8.05193H104.184V13.2127H115.099V15.5411H109.641H109.65Z" fill="white"/>
<path d="M129.157 14.3474C129.612 14.8517 130.118 15.3813 130.658 15.9276C131.205 16.474 131.753 16.9951 132.308 17.5079L130.566 19.357C130.077 18.8947 129.604 18.4324 129.148 17.9701C128.692 17.5162 128.261 17.0708 127.863 16.6505C127.448 16.2302 127.099 15.852 126.809 15.5074C126.527 15.1628 126.345 14.9022 126.27 14.7173H126.228C126.154 14.919 125.963 15.2132 125.64 15.5998C125.316 15.9864 124.976 16.3647 124.62 16.7429C124.222 17.1632 123.798 17.5919 123.35 18.0374C122.903 18.4828 122.38 18.9956 121.758 19.5756L119.975 17.7012C121.194 16.6001 122.264 15.5326 123.193 14.4987C123.508 14.1541 123.774 13.8179 123.981 13.4985C124.189 13.1791 124.354 12.8513 124.487 12.5151C124.62 12.1789 124.711 11.8343 124.769 11.4728C124.827 11.1114 124.852 10.6996 124.852 10.254V5.53026H127.622V10.254C127.622 10.6911 127.639 11.0778 127.672 11.4308C127.705 11.7754 127.78 12.1116 127.896 12.4226C128.012 12.7336 128.161 13.0446 128.36 13.3556C128.551 13.6666 128.817 13.9944 129.148 14.3474H129.157ZM136.721 24.3582H133.992V4.11816H136.721V24.3666V24.3582Z" fill="white"/>
<path d="M147.006 13.1961V9.51456H149.735V13.1961H158.949V15.5076H140.644V13.1961H147.006ZM156.353 4.85802V7.81666C156.353 8.06045 156.345 8.36307 156.32 8.71608C156.303 9.0691 156.27 9.45574 156.221 9.85915C156.179 10.2626 156.129 10.6745 156.071 11.078C156.013 11.4814 155.947 11.8513 155.881 12.1875L153.235 11.8849C153.392 11.1116 153.5 10.3971 153.558 9.72473C153.616 9.06067 153.641 8.44709 153.641 7.89233V7.17789H143.033V4.84961H156.353V4.85802ZM149.801 24.972C148.93 24.972 148.1 24.8879 147.321 24.7282C146.542 24.5685 145.853 24.3332 145.272 24.0138C144.683 23.6943 144.219 23.2993 143.879 22.8286C143.538 22.3579 143.365 21.8116 143.365 21.1896V20.5339C143.365 19.9119 143.538 19.3656 143.879 18.8865C144.219 18.4158 144.683 18.0208 145.272 17.7013C145.861 17.3819 146.542 17.1466 147.321 16.9785C148.1 16.8188 148.93 16.7431 149.801 16.7431C150.671 16.7431 151.501 16.8188 152.281 16.9785C153.06 17.1382 153.749 17.3819 154.33 17.7013C154.918 18.0208 155.383 18.4158 155.723 18.8865C156.063 19.3572 156.237 19.9035 156.237 20.5339V21.1896C156.237 21.8116 156.063 22.3579 155.723 22.8286C155.383 23.2993 154.91 23.6943 154.33 24.0138C153.741 24.3332 153.06 24.5769 152.281 24.7282C151.501 24.8879 150.671 24.972 149.801 24.972ZM149.801 18.9874C149.328 18.9874 148.864 19.0294 148.408 19.105C147.951 19.1807 147.545 19.2984 147.197 19.4413C146.848 19.5841 146.566 19.7691 146.351 19.9876C146.135 20.2061 146.027 20.4415 146.027 20.7021V21.0046C146.027 21.2652 146.135 21.509 146.351 21.7191C146.566 21.9377 146.848 22.1141 147.197 22.2655C147.545 22.4083 147.951 22.526 148.408 22.6016C148.864 22.6773 149.328 22.7194 149.801 22.7194C150.273 22.7194 150.738 22.6773 151.194 22.6016C151.651 22.526 152.057 22.4083 152.405 22.2655C152.754 22.1226 153.036 21.9377 153.251 21.7191C153.467 21.5005 153.575 21.2652 153.575 21.0046V20.7021C153.575 20.4415 153.467 20.2061 153.251 19.9876C153.036 19.7691 152.754 19.5925 152.405 19.4413C152.057 19.2984 151.651 19.1807 151.194 19.105C150.738 19.0294 150.273 18.9874 149.801 18.9874Z" fill="white"/>
<path d="M170.246 14.3054C170.703 14.8097 171.208 15.3392 171.748 15.8856C172.295 16.432 172.843 16.9531 173.398 17.4658L171.656 19.315C171.167 18.8527 170.694 18.3904 170.238 17.9365C169.782 17.4826 169.351 17.0371 168.953 16.6169C168.538 16.1966 168.189 15.8184 167.899 15.4737C167.609 15.1291 167.435 14.8686 167.36 14.6753H167.319C167.244 14.877 167.053 15.1712 166.73 15.5578C166.406 15.9445 166.066 16.3227 165.71 16.7009C165.311 17.1212 164.888 17.5583 164.44 17.9953C163.992 18.4409 163.47 18.9536 162.848 19.5335L161.065 17.6591C162.284 16.5581 163.354 15.4906 164.283 14.4567C164.598 14.1121 164.855 13.7759 165.071 13.4565C165.278 13.137 165.444 12.8093 165.576 12.4731C165.71 12.1368 165.8 11.7922 165.859 11.4308C165.917 11.0693 165.941 10.6659 165.941 10.212V5.55547H168.712V10.212C168.712 10.6491 168.729 11.0357 168.77 11.3887C168.803 11.7334 168.878 12.0696 168.994 12.3806C169.11 12.6916 169.259 13.0026 169.459 13.3136C169.649 13.6246 169.914 13.9524 170.238 14.3054H170.246ZM177.255 11.2543H180V13.6498H177.255V24.3582H174.526V4.11816H177.255V11.2627V11.2543Z" fill="white"/>
<path d="M39.5472 26.8047V31.2595C39.5472 31.8815 39.6633 32.3438 39.9038 32.6463C40.136 32.949 40.5674 33.1086 41.1978 33.1086C41.8281 33.1086 42.2511 32.9574 42.4916 32.6463C42.7321 32.3354 42.8483 31.8731 42.8483 31.2595V26.8047H43.6362V31.2679C43.6362 32.1589 43.4205 32.8145 42.9975 33.2179C42.5745 33.6214 41.9691 33.8315 41.1894 33.8315C40.7333 33.8315 40.3518 33.7727 40.0365 33.6466C39.7214 33.5205 39.4726 33.344 39.2818 33.1086C39.091 32.8817 38.9583 32.6211 38.8753 32.3102C38.7925 31.9991 38.751 31.663 38.751 31.2931V26.8131H39.5389L39.5472 26.8047Z" fill="white"/>
<path d="M47.3772 33.1251C47.4685 33.1082 47.5763 33.0663 47.7007 32.999L47.8749 33.5874C47.7174 33.6799 47.5598 33.7387 47.4187 33.7723C47.2777 33.8059 47.1285 33.8227 46.9874 33.8227C46.664 33.8227 46.4235 33.7219 46.2576 33.5286C46.0917 33.3352 46.0087 33.1082 46.0087 32.8561V29.5864H45.3037V28.9392H46.805V32.7973C46.805 32.8981 46.8215 32.9822 46.863 33.0411C46.9045 33.0999 46.9874 33.1335 47.1036 33.1335C47.1948 33.1335 47.2777 33.1251 47.3772 33.0999V33.1251ZM45.9258 27.6532V26.6025H46.8133V27.6532H45.9258Z" fill="white"/>
<path d="M49.0361 29.6033V28.9561H50.5457V34.1422C50.5457 34.3019 50.5208 34.4783 50.4794 34.6633C50.4379 34.8482 50.3632 35.0163 50.2554 35.176C50.1476 35.3357 49.9983 35.4618 49.8158 35.5627C49.625 35.6635 49.3928 35.7139 49.1108 35.7139C49.0279 35.7139 48.9283 35.7055 48.8039 35.6887C48.6795 35.6719 48.5551 35.6467 48.439 35.6131V34.9995C48.5634 35.0163 48.6712 35.0331 48.7707 35.0331C48.8702 35.0331 48.9698 35.0331 49.0693 35.0331C49.285 35.0163 49.4509 34.9574 49.567 34.8566C49.6831 34.7473 49.7412 34.554 49.7412 34.2598V29.6116H49.0361V29.6033ZM49.6665 27.6532V26.6025H50.5125V27.6532H49.6665Z" fill="white"/>
<path d="M55.4385 33.0754C55.7205 33.0165 55.9942 32.9325 56.2513 32.8064L56.4587 33.42C56.2015 33.5545 55.9196 33.6553 55.621 33.7309C55.3141 33.7982 55.0238 33.8318 54.7418 33.8318C53.9041 33.8318 53.2986 33.6133 52.9254 33.1678C52.5521 32.7224 52.3696 32.0752 52.3696 31.2262C52.3696 30.8648 52.4194 30.5369 52.5272 30.2428C52.6351 29.9486 52.7843 29.6964 52.9751 29.4779C53.1659 29.2762 53.3981 29.1165 53.6718 28.9987C53.9373 28.8811 54.2359 28.8223 54.5593 28.8223C55.2643 28.8223 55.7703 28.9735 56.0771 29.2677C56.3841 29.5619 56.5333 29.9149 56.5333 30.3268C56.5333 30.8311 56.3674 31.1842 56.0357 31.3859C55.7039 31.5876 55.2892 31.6884 54.7998 31.6884H53.1991C53.1991 32.1676 53.3318 32.529 53.5972 32.7728C53.8626 33.0249 54.2441 33.1426 54.7501 33.1426C54.9243 33.1426 55.1565 33.1174 55.4385 33.0585V33.0754ZM53.5723 29.8982C53.3318 30.1587 53.2073 30.5285 53.1991 31.0076H54.8081C55.0736 31.0076 55.2975 30.9656 55.48 30.8732C55.6625 30.7807 55.7537 30.6042 55.7537 30.3352C55.7537 30.0999 55.6541 29.9065 55.48 29.7468C55.3058 29.5871 54.9989 29.5031 54.5676 29.5031C54.1363 29.5031 53.8129 29.6292 53.5723 29.8897V29.8982Z" fill="white"/>
<path d="M61.6586 29.4352C62.0484 29.8387 62.2392 30.4691 62.2392 31.3264C62.2392 32.1334 62.0402 32.7553 61.6586 33.1924C61.2688 33.6211 60.738 33.8396 60.0745 33.8396C59.4109 33.8396 58.8801 33.6211 58.4903 33.1924C58.1005 32.7637 57.9097 32.1417 57.9097 31.3264C57.9097 30.4691 58.1005 29.8387 58.4903 29.4352C58.8801 29.0318 59.4109 28.8301 60.0745 28.8301C60.738 28.8301 61.2688 29.0318 61.6586 29.4352ZM59.0128 32.6292C59.2119 32.9739 59.5686 33.1504 60.0745 33.1504C60.5804 33.1504 60.9288 32.9739 61.1361 32.6292C61.3351 32.2846 61.4347 31.8475 61.4347 31.318C61.4347 30.7885 61.3351 30.3346 61.1361 30.0068C60.9371 29.679 60.5887 29.5109 60.0828 29.5109C59.5768 29.5109 59.2036 29.679 59.0128 30.0068C58.8138 30.3346 58.7142 30.7717 58.7142 31.318C58.7142 31.8644 58.8138 32.2762 59.0128 32.6292Z" fill="white"/>
<path d="M67.0917 33.705V30.4858C67.0917 30.1831 67.0419 29.9394 66.9424 29.7713C66.8429 29.6032 66.6439 29.5192 66.3369 29.5192C66.055 29.5192 65.7564 29.6116 65.4578 29.7881C65.1509 29.9646 64.902 30.1495 64.7196 30.3513V33.7134H63.9233V28.998H64.6117L64.7113 29.5611C64.9519 29.3594 65.2172 29.1829 65.4993 29.0484C65.7812 28.9139 66.113 28.8467 66.4697 28.8467C66.9507 28.8467 67.3073 28.9812 67.5396 29.2502C67.7718 29.5192 67.8879 29.8722 67.8879 30.3092V33.7218H67.0917V33.705Z" fill="white"/>
<path d="M73.6356 34.0754C73.6356 34.731 73.4369 35.2101 73.0301 35.5295C72.624 35.8405 72.1013 36.0002 71.4545 36.0002C71.3468 36.0002 71.2389 36.0002 71.1394 36.0002C71.0399 36.0002 70.932 35.9918 70.8325 35.9834C70.733 35.9834 70.6335 35.9834 70.5339 35.9834C70.4344 35.9834 70.3514 35.9834 70.2685 35.9834V35.3026C70.509 35.3194 70.7164 35.3362 70.8906 35.3362C71.0647 35.3362 71.2555 35.3362 71.4545 35.3362C71.8527 35.3362 72.1762 35.2437 72.4332 35.0672C72.6903 34.8907 72.8228 34.5629 72.8228 34.0922V33.5543C72.5823 33.6719 72.3339 33.7476 72.0934 33.7896C71.8444 33.8316 71.6288 33.8484 71.4214 33.8484C71.1228 33.8484 70.8657 33.7896 70.6335 33.6635C70.4012 33.5374 70.2022 33.361 70.0446 33.134C69.887 32.9071 69.7625 32.6465 69.6796 32.3355C69.5966 32.0329 69.5552 31.6967 69.5552 31.3353C69.5552 30.5451 69.6879 29.9315 69.9616 29.4945C70.227 29.0574 70.6832 28.8389 71.3218 28.8389C71.6204 28.8389 71.8942 28.9061 72.151 29.0406C72.4088 29.1751 72.6327 29.3516 72.84 29.5533L72.9308 28.9901H73.6356V34.0838V34.0754ZM72.1596 33.1004C72.3584 33.0584 72.5823 32.9659 72.8228 32.823V30.3854C72.6492 30.1501 72.4419 29.9484 72.2093 29.7803C71.9771 29.6037 71.72 29.5197 71.4545 29.5197C71.0647 29.5197 70.7827 29.6626 70.6169 29.9484C70.451 30.2342 70.3681 30.6965 70.3681 31.3268C70.3681 31.5622 70.3846 31.7976 70.4178 32.0161C70.451 32.2346 70.5173 32.4363 70.6085 32.6045C70.6998 32.7726 70.8325 32.9154 70.9901 33.0163C71.1477 33.1172 71.355 33.1676 71.6039 33.1676C71.778 33.1676 71.9688 33.1508 72.1676 33.1088L72.1596 33.1004Z" fill="white"/>
<path d="M75.4033 33.7051V26.6025H76.191V29.0401C76.3156 29.0233 76.4315 28.9981 76.5474 28.9813C76.664 28.9644 76.78 28.9392 76.8959 28.9225C77.0204 28.9056 77.1364 28.8888 77.2609 28.872C77.3855 28.8636 77.51 28.8552 77.6504 28.8468C78.2149 28.8468 78.6707 29.0485 79.0192 29.4688C79.3676 29.8891 79.5419 30.5111 79.5419 31.3432C79.5419 31.6878 79.5088 32.0071 79.4339 32.3013C79.359 32.604 79.2517 32.8561 79.1106 33.0747C78.9608 33.3016 78.7873 33.4781 78.58 33.6126C78.3726 33.7471 78.1321 33.8227 77.8664 33.8227C77.5345 33.8395 77.2444 33.8227 76.9787 33.7387C76.7137 33.663 76.4646 33.5202 76.2328 33.3184L76.0996 33.6883H75.4112L75.4033 33.7051ZM77.1695 29.5528C77.0615 29.5697 76.9621 29.5864 76.8548 29.6116C76.7468 29.6285 76.6388 29.6537 76.5308 29.6789C76.4228 29.7042 76.3156 29.7294 76.2076 29.7461V32.4947C76.3487 32.688 76.5308 32.8477 76.7548 32.9654C76.9787 33.0915 77.2192 33.1587 77.4848 33.1587C77.8664 33.1587 78.1652 33.0242 78.3892 32.7469C78.6044 32.4779 78.7124 32.0071 78.7124 31.3432C78.7124 30.7464 78.6044 30.2925 78.3971 29.9815C78.1818 29.6705 77.883 29.5192 77.4848 29.5192C77.3768 29.5192 77.2688 29.5276 77.1695 29.5444V29.5528Z" fill="white"/>
<path d="M85.0739 28.9813V32.8729C85.0739 32.9906 85.0905 33.0747 85.1323 33.1167C85.174 33.1671 85.2403 33.184 85.3483 33.184C85.3979 33.184 85.4642 33.184 85.5304 33.1671C85.6053 33.1588 85.6629 33.1419 85.7047 33.1167L85.8371 33.6546C85.7464 33.7135 85.6384 33.7471 85.5391 33.7807C85.4311 33.806 85.3231 33.8228 85.2237 33.8228C84.9998 33.8228 84.809 33.7807 84.6513 33.7051C84.4936 33.6294 84.3777 33.4697 84.2949 33.2259C84.0789 33.4277 83.8384 33.579 83.5814 33.6715C83.3157 33.7639 83.0421 33.8143 82.7519 33.8143C82.271 33.8143 81.8894 33.7051 81.6158 33.4782C81.3422 33.2512 81.209 32.8898 81.209 32.3938V28.9645H82.0053V32.3434C82.0053 32.646 82.0636 32.8477 82.1961 32.9654C82.3207 33.0747 82.5359 33.1335 82.8347 33.1335C83.1004 33.1335 83.3488 33.0747 83.5979 32.9402C83.8471 32.8141 84.071 32.6376 84.2697 32.4107V28.9561H85.066L85.0739 28.9813Z" fill="white"/>
<path d="M91.2778 26.8047V31.2595C91.2778 31.8815 91.3937 32.3438 91.6342 32.6463C91.866 32.949 92.298 33.1086 92.928 33.1086C93.5587 33.1086 93.9814 32.9574 94.2218 32.6463C94.4623 32.3354 94.5782 31.8731 94.5782 31.2595V26.8047H95.3666V31.2679C95.3666 32.1589 95.1506 32.8145 94.728 33.2179C94.3046 33.6298 93.6991 33.8315 92.9194 33.8315C92.4636 33.8315 92.082 33.7727 91.7666 33.6466C91.452 33.5205 91.2029 33.344 91.0121 33.1086C90.8213 32.8817 90.6888 32.6211 90.6053 32.3102C90.5225 31.9991 90.4814 31.663 90.4814 31.2931V26.8131H91.2691L91.2778 26.8047Z" fill="white"/>
<path d="M97.2412 33.7056V28.9901H97.9382L98.0296 29.4609C98.2118 29.2591 98.4112 29.0994 98.6351 28.9986C98.859 28.8977 99.083 28.8389 99.3234 28.8389C99.448 28.8389 99.5805 28.8473 99.705 28.8725C99.8296 28.8977 99.9455 28.9229 100.045 28.9482V29.6458C99.9203 29.6121 99.8123 29.5869 99.705 29.5617C99.597 29.5365 99.4811 29.5281 99.3479 29.5281C99.1074 29.5281 98.8756 29.5869 98.6596 29.6962C98.4443 29.8055 98.237 29.9652 98.0462 30.1585V33.714H97.2412V33.7056Z" fill="white"/>
<path d="M101.314 33.7051V26.6025H102.102V29.0401C102.226 29.0233 102.342 28.9981 102.459 28.9813C102.575 28.9644 102.691 28.9392 102.807 28.9225C102.931 28.9056 103.047 28.8888 103.172 28.872C103.296 28.8636 103.421 28.8552 103.562 28.8468C104.126 28.8468 104.582 29.0485 104.93 29.4688C105.278 29.8891 105.453 30.5111 105.453 31.3432C105.453 31.6878 105.419 32.0071 105.345 32.3013C105.27 32.604 105.162 32.8561 105.021 33.0747C104.872 33.3016 104.698 33.4781 104.491 33.6126C104.283 33.7471 104.043 33.8227 103.777 33.8227C103.445 33.8395 103.155 33.8227 102.89 33.7387C102.624 33.663 102.375 33.5202 102.143 33.3184L102.011 33.6883H101.322L101.314 33.7051ZM103.072 29.5528C102.964 29.5697 102.865 29.5864 102.757 29.6116C102.65 29.6285 102.542 29.6537 102.434 29.6789C102.326 29.7042 102.218 29.7294 102.11 29.7461V32.4947C102.251 32.688 102.434 32.8477 102.657 32.9654C102.881 33.0915 103.122 33.1587 103.388 33.1587C103.769 33.1587 104.067 33.0242 104.291 32.7469C104.507 32.4779 104.615 32.0071 104.615 31.3432C104.615 30.7464 104.507 30.2925 104.3 29.9815C104.084 29.6705 103.786 29.5192 103.388 29.5192C103.28 29.5192 103.172 29.5276 103.072 29.5444V29.5528Z" fill="white"/>
<path d="M110.703 32.8562C110.703 32.957 110.719 33.0411 110.744 33.1C110.769 33.1588 110.835 33.1924 110.935 33.1924C110.984 33.1924 111.051 33.1924 111.109 33.184C111.175 33.184 111.259 33.1588 111.358 33.1252L111.491 33.6631C111.391 33.722 111.275 33.7724 111.142 33.7976C111.01 33.8228 110.894 33.8396 110.794 33.8396C110.611 33.8396 110.454 33.806 110.321 33.7303C110.189 33.6547 110.081 33.5287 109.981 33.3521C109.758 33.5202 109.517 33.6463 109.251 33.722C108.986 33.7976 108.704 33.8396 108.397 33.8396C107.883 33.8396 107.501 33.7051 107.244 33.4278C106.987 33.1504 106.854 32.7973 106.854 32.3687C106.854 31.94 106.962 31.5954 107.178 31.3096C107.393 31.0238 107.75 30.8557 108.256 30.8053C108.38 30.8053 108.488 30.7885 108.588 30.7801C108.688 30.7717 108.787 30.7633 108.903 30.7549C109.027 30.7549 109.16 30.7549 109.318 30.7549C109.475 30.7549 109.674 30.7464 109.914 30.7381V30.4691C109.914 30.1497 109.824 29.9143 109.633 29.7546C109.442 29.5949 109.176 29.5193 108.837 29.5193C108.688 29.5193 108.554 29.5277 108.43 29.5445C108.306 29.5613 108.189 29.5781 108.073 29.6034C107.958 29.6201 107.85 29.6453 107.75 29.6706C107.642 29.6958 107.543 29.721 107.443 29.7379L107.31 29.0822C107.593 29.0066 107.85 28.9477 108.073 28.8973C108.297 28.8469 108.554 28.8301 108.837 28.8301C109.417 28.8301 109.881 28.9562 110.213 29.2167C110.545 29.4689 110.711 29.8639 110.711 30.3851V32.8562H110.703ZM109.914 31.3936C109.542 31.3936 109.235 31.4105 108.994 31.4273C108.762 31.4441 108.554 31.4609 108.38 31.4777C108.082 31.5198 107.883 31.6206 107.783 31.7804C107.684 31.94 107.634 32.1417 107.642 32.3603C107.642 32.604 107.7 32.7974 107.808 32.9403C107.916 33.0831 108.156 33.1504 108.505 33.1504C108.729 33.1504 108.945 33.1167 109.152 33.0411C109.367 32.9739 109.616 32.8058 109.907 32.5536V31.3853L109.914 31.3936Z" fill="white"/>
<path d="M116.136 33.705V30.4858C116.136 30.1831 116.086 29.9394 115.986 29.7713C115.887 29.6032 115.688 29.5192 115.381 29.5192C115.099 29.5192 114.8 29.6116 114.502 29.7881C114.195 29.9646 113.946 30.1495 113.764 30.3513V33.7134H112.967V28.998H113.656L113.756 29.5611C113.996 29.3594 114.261 29.1829 114.543 29.0484C114.826 28.9139 115.157 28.8467 115.514 28.8467C115.995 28.8467 116.351 28.9812 116.584 29.2502C116.816 29.5192 116.932 29.8722 116.932 30.3092V33.7218H116.136V33.705Z" fill="white"/>
<path d="M127.142 33.4115C126.91 33.5293 126.628 33.6301 126.304 33.7057C125.981 33.7898 125.632 33.8318 125.267 33.8318C124.256 33.8318 123.459 33.5293 122.87 32.9157C122.281 32.3104 121.991 31.4195 121.991 30.2512C121.991 29.6712 122.066 29.1584 122.224 28.7046C122.381 28.2591 122.597 27.8809 122.887 27.5782C123.177 27.2757 123.518 27.0487 123.924 26.8974C124.322 26.7377 124.77 26.6621 125.267 26.6621C125.632 26.6621 125.973 26.7041 126.287 26.7882C126.603 26.8722 126.893 26.9647 127.142 27.0824L126.902 27.7632C126.636 27.6371 126.371 27.5446 126.097 27.4774C125.823 27.4101 125.558 27.3765 125.3 27.3765C124.953 27.3765 124.629 27.427 124.322 27.5278C124.023 27.6287 123.758 27.7968 123.526 28.0321C123.294 28.2591 123.119 28.5533 122.995 28.9147C122.87 29.2761 122.804 29.7216 122.804 30.2512C122.804 30.7807 122.87 31.243 123.004 31.6044C123.136 31.9658 123.318 32.26 123.551 32.487C123.783 32.7139 124.04 32.8736 124.338 32.9661C124.637 33.0585 124.953 33.109 125.267 33.109C125.533 33.109 125.806 33.0754 126.089 33.0081C126.371 32.9409 126.636 32.8484 126.902 32.7139L127.142 33.3948V33.4115Z" fill="white"/>
<path d="M132.085 29.4352C132.475 29.8387 132.666 30.4691 132.666 31.3264C132.666 32.1334 132.466 32.7553 132.085 33.1924C131.695 33.6211 131.165 33.8396 130.501 33.8396C129.838 33.8396 129.306 33.6211 128.917 33.1924C128.527 32.7637 128.336 32.1417 128.336 31.3264C128.336 30.4691 128.527 29.8387 128.917 29.4352C129.306 29.0318 129.838 28.8301 130.501 28.8301C131.165 28.8301 131.695 29.0318 132.085 29.4352ZM129.439 32.6292C129.638 32.9739 129.995 33.1504 130.501 33.1504C131.007 33.1504 131.355 32.9739 131.563 32.6292C131.761 32.2846 131.861 31.8475 131.861 31.318C131.861 30.7885 131.761 30.3346 131.563 30.0068C131.363 29.679 131.015 29.5109 130.509 29.5109C130.003 29.5109 129.63 29.679 129.439 30.0068C129.24 30.3346 129.141 30.7717 129.141 31.318C129.141 31.8644 129.24 32.2762 129.439 32.6292Z" fill="white"/>
<path d="M134.341 33.7056V28.9901H135.038L135.129 29.4609C135.312 29.2591 135.511 29.0994 135.735 28.9986C135.958 28.8977 136.182 28.8389 136.423 28.8389C136.547 28.8389 136.68 28.8473 136.804 28.8725C136.929 28.8977 137.045 28.9229 137.144 28.9482V29.6458C137.02 29.6121 136.912 29.5869 136.804 29.5617C136.696 29.5365 136.581 29.5281 136.448 29.5281C136.208 29.5281 135.975 29.5869 135.76 29.6962C135.544 29.8055 135.336 29.9652 135.146 30.1585V33.714H134.341V33.7056Z" fill="white"/>
<path d="M138.413 28.9814H139.084L139.185 29.5529C139.341 29.3848 139.549 29.2167 139.807 29.0654C140.064 28.9057 140.387 28.8301 140.776 28.8301C141.365 28.8301 141.797 29.057 142.054 29.5109C142.319 29.9648 142.444 30.5448 142.444 31.2592C142.444 32.0241 142.278 32.6377 141.946 33.1167C141.615 33.5958 141.158 33.8312 140.578 33.8312C140.312 33.8312 140.08 33.806 139.864 33.764C139.649 33.7136 139.433 33.6547 139.209 33.5875V35.6468H138.405V28.9729L138.413 28.9814ZM141.374 32.6292C141.556 32.2846 141.648 31.8308 141.648 31.2844C141.648 30.7381 141.573 30.2925 141.415 29.9816C141.258 29.6706 140.984 29.5193 140.578 29.5193C140.295 29.5193 140.038 29.6117 139.798 29.7883C139.558 29.9648 139.367 30.1749 139.218 30.3934V32.8898C139.334 32.9318 139.442 32.9655 139.532 32.9991C139.632 33.0327 139.723 33.0579 139.807 33.0831C139.897 33.1084 139.997 33.1252 140.088 33.1419C140.18 33.1504 140.288 33.1588 140.412 33.1588C140.868 33.1588 141.191 32.9822 141.365 32.6377L141.374 32.6292Z" fill="white"/>
<path d="M147.778 29.4352C148.167 29.8387 148.358 30.4691 148.358 31.3264C148.358 32.1334 148.159 32.7553 147.778 33.1924C147.388 33.6211 146.857 33.8396 146.193 33.8396C145.53 33.8396 144.999 33.6211 144.609 33.1924C144.22 32.7637 144.029 32.1417 144.029 31.3264C144.029 30.4691 144.22 29.8387 144.609 29.4352C144.999 29.0318 145.53 28.8301 146.193 28.8301C146.857 28.8301 147.388 29.0318 147.778 29.4352ZM145.132 32.6292C145.331 32.9739 145.688 33.1504 146.193 33.1504C146.699 33.1504 147.048 32.9739 147.255 32.6292C147.454 32.2846 147.554 31.8475 147.554 31.318C147.554 30.7885 147.454 30.3346 147.255 30.0068C147.056 29.679 146.708 29.5109 146.202 29.5109C145.696 29.5109 145.323 29.679 145.132 30.0068C144.932 30.3346 144.833 30.7717 144.833 31.318C144.833 31.8644 144.932 32.2762 145.132 32.6292Z" fill="white"/>
<path d="M150.034 33.7056V28.9901H150.73L150.821 29.4609C151.004 29.2591 151.203 29.0994 151.427 28.9986C151.651 28.8893 151.875 28.8389 152.115 28.8389C152.24 28.8389 152.372 28.8473 152.497 28.8725C152.621 28.8977 152.737 28.9229 152.837 28.9482V29.6458C152.712 29.6121 152.605 29.5869 152.497 29.5617C152.389 29.5365 152.273 29.5281 152.14 29.5281C151.9 29.5281 151.667 29.5869 151.452 29.6962C151.236 29.8055 151.029 29.9652 150.838 30.1585V33.714H150.034V33.7056Z" fill="white"/>
<path d="M157.697 32.8562C157.697 32.957 157.714 33.0411 157.738 33.1C157.764 33.1588 157.83 33.1924 157.929 33.1924C157.979 33.1924 158.045 33.1924 158.103 33.184C158.17 33.184 158.252 33.1588 158.352 33.1252L158.485 33.6631C158.386 33.722 158.269 33.7724 158.136 33.7976C158.004 33.8228 157.888 33.8396 157.788 33.8396C157.606 33.8396 157.448 33.806 157.316 33.7303C157.182 33.6547 157.075 33.5287 156.975 33.3521C156.751 33.5202 156.511 33.6463 156.246 33.722C155.98 33.7976 155.698 33.8396 155.391 33.8396C154.877 33.8396 154.495 33.7051 154.238 33.4278C153.981 33.1504 153.848 32.7973 153.848 32.3687C153.848 31.94 153.956 31.5954 154.172 31.3096C154.387 31.0238 154.745 30.8557 155.25 30.8053C155.375 30.8053 155.483 30.7885 155.582 30.7801C155.681 30.7717 155.781 30.7633 155.897 30.7549C156.022 30.7549 156.154 30.7549 156.312 30.7549C156.47 30.7549 156.668 30.7464 156.909 30.7381V30.4691C156.909 30.1497 156.818 29.9143 156.627 29.7546C156.437 29.5949 156.171 29.5193 155.831 29.5193C155.681 29.5193 155.549 29.5277 155.424 29.5445C155.3 29.5613 155.184 29.5781 155.068 29.6034C154.952 29.6201 154.844 29.6453 154.745 29.6706C154.637 29.6958 154.537 29.721 154.437 29.7379L154.305 29.0822C154.587 29.0066 154.844 28.9477 155.068 28.8973C155.292 28.8469 155.549 28.8301 155.831 28.8301C156.411 28.8301 156.876 28.9562 157.208 29.2167C157.54 29.4689 157.705 29.8639 157.705 30.3851V32.8562H157.697ZM156.909 31.3936C156.536 31.3936 156.229 31.4105 155.989 31.4273C155.756 31.4441 155.549 31.4609 155.375 31.4777C155.076 31.5198 154.877 31.6206 154.778 31.7804C154.678 31.94 154.628 32.1417 154.637 32.3603C154.637 32.604 154.694 32.7974 154.802 32.9403C154.91 33.0831 155.151 33.1504 155.499 33.1504C155.723 33.1504 155.938 33.1167 156.146 33.0411C156.362 32.9739 156.611 32.8058 156.901 32.5536V31.3853L156.909 31.3936Z" fill="white"/>
<path d="M161.065 29.6367V32.7299C161.065 32.8644 161.09 32.9737 161.131 33.0493C161.181 33.1249 161.272 33.167 161.413 33.167C161.487 33.167 161.596 33.1501 161.737 33.1249C161.878 33.0997 162.01 33.0577 162.127 32.9904L162.3 33.5536C162.151 33.6461 161.986 33.7133 161.812 33.7554C161.637 33.8058 161.446 33.8226 161.264 33.8226C160.94 33.8226 160.692 33.7301 160.518 33.5452C160.343 33.3603 160.252 33.1165 160.252 32.8223V29.6283H159.348V28.9559H160.252V27.1656L161.056 27.0059V28.9559H162.102V29.6283H161.056L161.065 29.6367Z" fill="white"/>
<path d="M165.85 33.1251C165.942 33.1082 166.049 33.0663 166.174 32.999L166.348 33.5874C166.19 33.6799 166.033 33.7387 165.892 33.7723C165.751 33.8059 165.601 33.8227 165.461 33.8227C165.137 33.8227 164.896 33.7219 164.731 33.5286C164.565 33.3352 164.482 33.1082 164.482 32.8561V29.5864H163.777V28.9392H165.278V32.7973C165.278 32.8981 165.295 32.9822 165.336 33.0411C165.377 33.0999 165.461 33.1335 165.577 33.1335C165.668 33.1335 165.751 33.1251 165.85 33.0999V33.1251ZM164.399 27.6532V26.6025H165.287V27.6532H164.399Z" fill="white"/>
<path d="M171.258 29.4352C171.648 29.8387 171.839 30.4691 171.839 31.3264C171.839 32.1334 171.64 32.7553 171.258 33.1924C170.869 33.6211 170.337 33.8396 169.674 33.8396C169.01 33.8396 168.48 33.6211 168.09 33.1924C167.7 32.7637 167.509 32.1417 167.509 31.3264C167.509 30.4691 167.7 29.8387 168.09 29.4352C168.48 29.0318 169.01 28.8301 169.674 28.8301C170.337 28.8301 170.869 29.0318 171.258 29.4352ZM168.612 32.6292C168.812 32.9739 169.168 33.1504 169.674 33.1504C170.18 33.1504 170.528 32.9739 170.736 32.6292C170.935 32.2846 171.034 31.8475 171.034 31.318C171.034 30.7885 170.935 30.3346 170.736 30.0068C170.537 29.679 170.188 29.5109 169.682 29.5109C169.177 29.5109 168.803 29.679 168.612 30.0068C168.414 30.3346 168.314 30.7717 168.314 31.318C168.314 31.8644 168.414 32.2762 168.612 32.6292Z" fill="white"/>
<path d="M176.692 33.705V30.4858C176.692 30.1831 176.642 29.9394 176.543 29.7713C176.443 29.6032 176.244 29.5192 175.937 29.5192C175.655 29.5192 175.356 29.6116 175.058 29.7881C174.751 29.9646 174.502 30.1495 174.319 30.3513V33.7134H173.523V28.998H174.212L174.311 29.5611C174.552 29.3594 174.817 29.1829 175.099 29.0484C175.381 28.9139 175.713 28.8467 176.07 28.8467C176.551 28.8467 176.907 28.9812 177.14 29.2502C177.372 29.5192 177.488 29.8722 177.488 30.3092V33.7218H176.692V33.705Z" fill="white"/>
</g>
</g>
<defs>
<clipPath id="clip0_121_110">
<rect width="180" height="36" fill="white"/>
</clipPath>
</defs>
</svg>
