<svg width="142" height="27" viewBox="0 0 142 27" fill="none" xmlns="http://www.w3.org/2000/svg">
<path d="M7.783 26.152V9.24L21.087 26.152H28.947L42.256 9.24V26.152H50.039V0H40.718L25.113 19.746L9.47 0H0V26.152H7.783Z" fill="black"/>
<path d="M99.6824 26.152V9.24L112.986 26.152H120.846L134.155 9.24V26.152H141.938V0H132.617L117.012 19.746L101.369 0H91.8994V26.152H99.6824Z" fill="black"/>
<path d="M55.3828 26.1501H62.6288V13.8431C66.0924 12.81 69.6752 12.2302 73.2878 12.1181C77.3138 12.1181 79.3078 13.5371 79.3078 16.5271V26.1501H86.5538V15.3001C86.5538 8.7821 82.6818 6.1001 75.6268 6.1001C71.0043 6.20661 66.4415 7.1678 62.1688 8.9351L61.7478 6.5961H55.3828V26.1501Z" fill="black"/>
</svg>
