<svg width="172" height="52" viewBox="0 0 172 52" fill="none" xmlns="http://www.w3.org/2000/svg">
<g clip-path="url(#clip0_194_26)">
<mask id="mask0_194_26" style="mask-type:luminance" maskUnits="userSpaceOnUse" x="0" y="0" width="172" height="52">
<path d="M172 0H0V52H172V0Z" fill="white"/>
</mask>
<g mask="url(#mask0_194_26)">
<path d="M2.57424 38.8489C2.71345 38.3361 2.88718 37.8333 3.09424 37.3439C3.29761 36.8616 3.66438 36.4664 4.13014 36.2275C4.59591 35.9887 5.13091 35.9216 5.64124 36.0379C6.1611 36.2041 6.61201 36.5364 6.92472 36.9837C7.23744 37.431 7.39466 37.9686 7.37224 38.5139C7.2929 38.7879 7.15237 39.0402 6.96124 39.2519C6.79241 39.4333 6.61239 39.604 6.42224 39.7629C6.13335 40.0083 5.95179 40.3569 5.91629 40.7343C5.88079 41.1116 5.99417 41.488 6.23224 41.7829C6.59186 42.2924 7.0742 42.7029 7.6346 42.9764C8.195 43.25 8.81535 43.3778 9.43824 43.3479C12.5272 43.2939 14.9552 41.7789 17.1282 39.7749C19.5953 37.3545 21.6132 34.5155 23.0882 31.3899C24.5302 28.5749 25.8282 25.6899 27.1962 22.8329C29.0917 18.6708 31.2941 14.6553 33.7852 10.8199C35.5854 8.08545 37.761 5.61764 40.2482 3.48892C40.2848 3.45134 40.3182 3.41087 40.3482 3.36792C39.5942 3.36792 38.8672 3.31292 38.1482 3.37692C34.9956 3.61665 31.9348 4.54952 29.1844 6.10892C26.434 7.66831 24.0618 9.81575 22.2372 12.3979C20.8625 14.1794 19.8329 16.2021 19.2012 18.3619C18.9396 19.2219 18.8845 20.1316 19.0402 21.0169C19.1736 21.7096 19.5658 22.3255 20.1369 22.7396C20.7081 23.1536 21.4154 23.3346 22.1152 23.2459C23.1288 23.1923 24.0978 22.812 24.8772 22.1619C24.8982 22.1439 24.9192 22.1169 24.9432 22.1139C25.1432 22.0849 25.3492 22.0599 25.5522 22.0329C25.4932 22.2239 25.4932 22.4739 25.3672 22.5979C24.2079 23.7149 22.7486 24.4703 21.1672 24.7719C20.3141 24.9579 19.4261 24.9046 18.6012 24.6179C17.8085 24.3571 17.1209 23.8476 16.6406 23.165C16.1604 22.4824 15.913 21.6632 15.9352 20.8289C15.8866 19.0965 16.338 17.3867 17.2352 15.9039C19.7191 11.4885 23.4472 7.9015 27.9552 5.5899C30.7381 4.06289 33.7668 3.03504 36.9042 2.55292C38.4851 2.29956 40.0887 2.21708 41.6872 2.30692C41.8223 2.32011 41.9583 2.29443 42.0792 2.23291C43.0711 1.58768 44.1689 1.12223 45.3222 0.85791H45.4052C45.4642 0.88991 45.5462 0.907916 45.5792 0.957916C45.6965 1.1002 45.7811 1.26643 45.8272 1.44492C45.8352 1.51492 45.6022 1.64491 45.4602 1.69391C44.8832 1.90691 44.2982 2.09991 43.7182 2.30591C43.6584 2.33413 43.6031 2.37123 43.5542 2.41592C44.6542 2.72492 45.7722 2.98292 46.8542 3.35892C48.848 3.97411 50.5864 5.22342 51.8052 6.91693C52.7868 8.35528 53.3097 10.0573 53.3048 11.7986C53.3 13.54 52.7678 15.239 51.7782 16.6719C49.9807 19.3106 47.2697 21.1901 44.1682 21.9479C41.3664 22.7048 38.4565 22.9811 35.5622 22.7649C34.8932 22.6892 34.232 22.5554 33.5862 22.3649C33.3814 22.2917 33.1852 22.1961 33.0012 22.0799C33.1122 21.7439 33.2812 21.5679 33.6012 21.6659C35.2769 22.1041 37.0348 22.1223 38.7192 21.7189C40.8932 21.404 42.9737 20.6243 44.8192 19.4329C46.901 18.1405 48.4507 16.1449 49.1872 13.8079C49.7717 11.9661 49.7189 9.98105 49.0372 8.17291C48.5983 7.09437 47.9054 6.13777 47.0175 5.38443C46.1296 4.63109 45.0729 4.1033 43.9372 3.84592C42.3102 3.36492 42.2992 3.37993 41.1752 4.63193C39.1707 6.96571 37.4531 9.53134 36.0592 12.2739C34.2019 15.8204 32.5635 19.4772 31.1532 23.2239C29.68 27.1772 27.7127 30.9283 25.2982 34.3879C23.3862 37.1898 20.9348 39.5825 18.0872 41.4259C15.0923 43.3179 11.5723 44.2062 8.03824 43.9619C7.04511 43.9185 6.06729 43.7012 5.14924 43.3199C4.5012 43.0556 3.93194 42.6293 3.49609 42.0817C3.06024 41.5341 2.77242 40.8837 2.66024 40.1929C2.63648 40.102 2.60743 40.0125 2.57324 39.9249L2.57424 38.8489Z" fill="white"/>
<path d="M118.129 3.29978C117.116 3.34578 116.098 3.33879 115.092 3.44679C111.258 3.85726 107.618 5.34343 104.592 7.7338C101.153 10.2818 98.5649 13.8093 97.1658 17.8538C96.7905 18.8663 96.6823 19.9584 96.8518 21.0248C96.9703 21.6018 97.2701 22.1259 97.7074 22.5206C98.1447 22.9153 98.6967 23.1599 99.2828 23.2188C100.489 23.326 101.69 22.9635 102.636 22.2068C102.856 22.0398 103.136 21.7968 103.357 22.0538C103.578 22.3108 103.286 22.5338 103.097 22.7028C101.798 23.946 100.111 24.7027 98.3188 24.8448C95.1458 25.0288 93.6108 22.9638 93.7538 20.0748C93.9631 17.9362 94.769 15.8995 96.0798 14.1968C98.9501 10.0056 102.945 6.7099 107.606 4.68879C110.07 3.54039 112.701 2.7917 115.401 2.4708C116.767 2.3258 118.152 2.36578 119.528 2.30878C119.702 2.2912 119.872 2.24102 120.028 2.1608C120.867 1.7828 121.696 1.38481 122.539 1.01881C122.739 0.922789 122.964 0.893335 123.182 0.934792C123.366 0.988792 123.503 1.20379 123.661 1.34779C123.539 1.46379 123.436 1.62978 123.29 1.68778C122.69 1.92278 122.081 2.1238 121.476 2.3408C121.421 2.37116 121.37 2.40809 121.325 2.45078C122.144 2.65078 122.947 2.79181 123.725 3.03181C125.603 3.51738 127.323 4.47978 128.72 5.82578C129.543 6.64587 130.181 7.63331 130.59 8.72126C130.999 9.80921 131.169 10.9723 131.09 12.1318C130.984 13.6925 130.51 15.2059 129.707 16.5485C128.904 17.8911 127.795 19.0247 126.471 19.8568C124.449 21.2387 122.133 22.129 119.706 22.4568C119.15 22.5478 118.591 22.6238 117.923 22.7228L118.36 22.9828C119.747 23.7349 120.968 24.7586 121.951 25.9928C123.117 27.5827 123.74 29.506 123.728 31.4778C123.813 33.2001 123.641 34.9255 123.217 36.5968C122.619 38.3963 121.584 40.0196 120.206 41.3218C118.413 43.0627 116.133 44.2177 113.669 44.6338C111.983 45.0022 110.254 45.1421 108.531 45.0498C106.547 44.9974 104.625 44.3501 103.014 43.1918C102.313 42.6699 101.787 41.9485 101.504 41.1223C101.221 40.2961 101.194 39.4036 101.427 38.5618C101.66 37.7576 102.18 37.0669 102.889 36.6208C103.247 36.3513 103.694 36.2281 104.14 36.2762C104.586 36.3243 104.996 36.5401 105.289 36.8798C105.535 37.0803 105.738 37.3291 105.885 37.611C106.032 37.8929 106.119 38.2018 106.142 38.5188C106.148 38.7819 106.087 39.0423 105.965 39.2753C105.842 39.5082 105.662 39.706 105.442 39.8498C105.204 39.9683 104.999 40.1425 104.843 40.3576C104.688 40.5728 104.586 40.8223 104.548 41.0851C104.51 41.3478 104.536 41.6159 104.624 41.8664C104.712 42.117 104.859 42.3425 105.053 42.5238C105.508 43.0859 106.105 43.5153 106.783 43.7672C107.461 44.0191 108.194 44.0843 108.906 43.9558C113.065 43.4998 118.247 40.0218 119.519 34.7458C120.255 32.1525 120.07 29.3845 118.997 26.9118C118.376 25.6103 117.358 24.5393 116.09 23.8528C114.853 23.1824 113.474 22.8147 112.068 22.7798C111.779 22.7589 111.496 22.6942 111.227 22.5878C111.086 22.5486 110.96 22.468 110.865 22.3564C110.77 22.2447 110.711 22.1072 110.695 21.9616C110.679 21.816 110.707 21.669 110.776 21.5396C110.845 21.4103 110.95 21.3044 111.08 21.2358C111.553 20.9167 112.125 20.7783 112.692 20.8458C113.708 20.9455 114.702 21.2011 115.64 21.6038C115.926 21.7149 116.236 21.7514 116.54 21.7098C119.441 21.3152 122.156 20.0539 124.329 18.0908C125.285 17.2297 126.051 16.1791 126.579 15.0059C127.107 13.8326 127.385 12.5623 127.396 11.2758C127.482 9.51178 126.924 7.77655 125.826 6.39353C124.727 5.01052 123.164 4.07409 121.426 3.7588C120.077 3.4488 120.071 3.44381 119.147 4.45881C117.219 6.65915 115.558 9.08038 114.201 11.6718C112.195 15.4217 110.44 19.3002 108.946 23.2818C107.514 27.1028 105.624 30.736 103.317 34.1018C101.291 37.1632 98.6226 39.747 95.4978 41.6738C92.5872 43.4094 89.2137 44.2091 85.8338 43.9648C84.7152 43.9214 83.6183 43.6437 82.6138 43.1498C82.1022 42.8642 81.654 42.4777 81.2963 42.0136C80.9386 41.5496 80.6789 41.0177 80.5329 40.4503C80.3869 39.8829 80.3577 39.2918 80.4471 38.7127C80.5365 38.1337 80.7425 37.5788 81.0528 37.0818C81.3055 36.6571 81.6913 36.3275 82.1503 36.1442C82.6093 35.9609 83.1159 35.934 83.5918 36.0678C84.0455 36.2557 84.4378 36.5665 84.7245 36.9652C85.0113 37.364 85.1811 37.8348 85.2148 38.3248C85.1636 38.6324 85.0413 38.9237 84.8578 39.1758C84.7377 39.3267 84.5958 39.4588 84.4368 39.5678C84.2295 39.7096 84.0583 39.8979 83.9368 40.1177C83.8153 40.3375 83.747 40.5827 83.7373 40.8337C83.7275 41.0846 83.7767 41.3343 83.8808 41.5629C83.9849 41.7914 84.1411 41.9924 84.3368 42.1498C84.837 42.6483 85.4537 43.0141 86.1311 43.2141C86.8084 43.414 87.525 43.4418 88.2158 43.2948C90.8051 42.8527 93.1866 41.5982 95.0158 39.7128C97.485 37.256 99.5057 34.3865 100.987 31.2338C102.46 28.3408 103.801 25.3808 105.202 22.4508C107.014 18.4922 109.11 14.6696 111.473 11.0128C113.29 8.22358 115.493 5.70505 118.015 3.53181C118.064 3.49081 118.109 3.4448 118.156 3.4008L118.129 3.29978Z" fill="white"/>
<path d="M62.6552 31.011C60.4742 33.711 58.2812 36.411 56.1222 39.127C55.7061 39.6894 55.3416 40.2882 55.0332 40.916C54.8812 41.202 54.7762 41.635 55.0942 41.823C55.3932 41.9449 55.7281 41.9449 56.0272 41.823C57.2028 41.3654 58.2544 40.6378 59.0972 39.699C60.5172 38.159 61.8832 36.57 63.2622 34.992C63.8162 34.359 64.3692 33.723 64.8732 33.052C65.189 32.603 65.4692 32.1298 65.7112 31.637C65.7965 31.4265 65.9448 31.2476 66.1358 31.1248C66.3269 31.0019 66.5513 30.9413 66.7782 30.9511C67.5622 30.9511 68.3462 30.845 69.1312 30.842C69.4192 30.842 69.8992 30.942 69.9522 31.112C69.9903 31.4292 69.9051 31.7489 69.7142 32.005C68.3823 33.953 66.9119 35.8024 65.3142 37.539C64.3927 38.5667 63.6211 39.7194 63.0222 40.963C62.9279 41.2781 62.8798 41.6052 62.8792 41.9341C63.1937 41.9471 63.5088 41.9273 63.8192 41.875C65.6847 41.2977 67.3738 40.2578 68.7292 38.8521C70.2137 37.3318 71.5572 35.68 72.7432 33.917C73.0912 33.438 73.4562 32.968 73.8502 32.526C74.1513 32.218 74.3237 31.8067 74.3322 31.376C74.3249 31.3171 74.3303 31.2573 74.3481 31.2007C74.3659 31.1441 74.3957 31.0919 74.4355 31.0478C74.4752 31.0037 74.524 30.9687 74.5784 30.9451C74.6329 30.9215 74.6918 30.9099 74.7512 30.911C75.9902 30.854 77.2292 30.817 78.4682 30.777C78.54 30.7862 78.61 30.8057 78.6762 30.8351C78.7353 31.0702 78.7415 31.3155 78.6943 31.5533C78.6471 31.791 78.5477 32.0154 78.4032 32.2101C77.7842 33.0011 77.1242 33.76 76.4892 34.539C73.6332 38.045 70.7782 41.5517 67.9242 45.0591C65.1218 48.4609 61.1294 50.6684 56.7582 51.233C55.2365 51.5235 53.677 51.5573 52.1442 51.333C51.522 51.2205 50.917 51.0279 50.3442 50.76C50.0409 50.6509 49.7822 50.4447 49.6081 50.1735C49.434 49.9023 49.3542 49.5812 49.3812 49.26C49.4046 48.9557 49.5139 48.6643 49.6964 48.4196C49.8789 48.175 50.1271 47.9872 50.4122 47.8781C50.7245 47.7292 51.0662 47.6519 51.4122 47.6519C51.7582 47.6519 52.0998 47.7292 52.4122 47.8781C52.5499 47.9254 52.6741 48.0054 52.7741 48.1114C52.8741 48.2173 52.9469 48.3459 52.9862 48.4861C53.0256 48.6264 53.0303 48.774 53 48.9165C52.9697 49.059 52.9052 49.192 52.8122 49.304C52.2122 50.142 52.3712 50.53 53.3892 50.761C54.5602 50.9976 55.7756 50.8677 56.8702 50.389C59.5384 49.2955 61.8893 47.5494 63.7072 45.311C64.6752 44.164 65.5562 42.945 66.4772 41.758L66.3972 41.6581C66.2812 41.7271 66.1632 41.7931 66.0502 41.8651C64.9145 42.6771 63.6141 43.2295 62.2412 43.483C61.5615 43.572 60.8716 43.5443 60.2012 43.401C59.9558 43.3502 59.7237 43.2489 59.5196 43.1035C59.3155 42.9581 59.1439 42.7719 59.0156 42.5566C58.8873 42.3414 58.8052 42.1018 58.7745 41.8531C58.7438 41.6044 58.7651 41.352 58.8372 41.112C58.8512 41.019 58.8752 40.928 58.9092 40.771C58.5372 41.053 58.2172 41.304 57.8892 41.544C56.7054 42.4563 55.3199 43.0712 53.8492 43.337C53.4963 43.399 53.1358 43.4044 52.7812 43.353C52.329 43.2595 51.9321 42.991 51.6772 42.606C51.4222 42.221 51.3298 41.7509 51.4202 41.298C51.4392 41.024 51.4522 40.749 51.4742 40.383C51.2922 40.512 51.1652 40.599 51.0412 40.69C49.6748 41.7886 48.1494 42.673 46.5172 43.3131C45.8935 43.5226 45.2391 43.6264 44.5812 43.62C43.9668 43.6081 43.3792 43.3659 42.9348 42.9415C42.4903 42.5171 42.2214 41.9413 42.1812 41.328C42.1662 41.193 42.1542 41.059 42.1332 40.85C41.9652 40.974 41.8332 41.066 41.7102 41.161C40.2651 42.3279 38.5285 43.0776 36.6882 43.329C36.3231 43.4147 35.9423 43.4063 35.5813 43.3047C35.2203 43.203 34.891 43.0115 34.6242 42.748C34.3911 42.47 34.2369 42.1345 34.1776 41.7766C34.1184 41.4187 34.1562 41.0514 34.2872 40.713C34.5098 39.8916 34.8662 39.1125 35.3422 38.407C36.8122 36.462 38.3812 34.591 39.9262 32.707C42.3555 29.741 44.7915 26.7804 47.2342 23.825C47.3844 23.6723 47.5004 23.4893 47.5745 23.2883C47.6487 23.0873 47.6792 22.8728 47.6642 22.659C47.6262 22.332 47.7872 22.232 48.0922 22.209C49.1922 22.127 50.2922 22.023 51.3922 21.93C51.6712 21.906 52.0692 21.762 52.1622 22.094C52.2053 22.2604 52.2147 22.4337 52.1898 22.6037C52.1649 22.7737 52.1062 22.9371 52.0172 23.084C51.0662 24.369 50.0622 25.615 49.0632 26.864C45.7572 30.9974 42.4492 35.1307 39.1392 39.264C38.8264 39.6311 38.5488 40.0269 38.3102 40.446C38.1602 40.7145 38.1143 41.0289 38.1812 41.329C38.3012 41.672 38.7122 41.629 39.0232 41.573C39.2957 41.5366 39.5591 41.4502 39.8002 41.318C40.6242 40.818 41.4292 40.293 42.2372 39.771C42.3177 39.7195 42.3814 39.6454 42.4202 39.558C43.1471 37.9415 44.2337 36.5125 45.5972 35.38C47.9903 33.1494 50.9469 31.6143 54.1482 30.94C54.8913 30.771 55.6641 30.782 56.4022 30.972C56.9798 31.125 57.4734 31.5004 57.7752 32.0161C57.9909 31.7926 58.1854 31.5495 58.3562 31.29C58.4396 31.1342 58.5704 31.009 58.7296 30.9324C58.8889 30.8558 59.0684 30.8319 59.2422 30.864C60.3552 30.883 61.4692 30.871 62.5832 30.871L62.6552 31.011ZM47.0402 42.078C47.5363 41.9858 48.019 41.8323 48.4772 41.621C49.448 41.0762 50.3587 40.4307 51.1942 39.695C52.4822 38.458 53.6552 37.095 54.8282 35.75C55.3366 35.1182 55.8043 34.4545 56.2282 33.763C56.3617 33.5382 56.4668 33.2977 56.5412 33.047C56.6431 32.8656 56.6894 32.6583 56.6743 32.4507C56.6592 32.2432 56.5833 32.0447 56.4562 31.88C56.3024 31.7168 56.1034 31.6031 55.8846 31.5536C55.6659 31.504 55.4373 31.5209 55.2282 31.6021C54.4354 31.8664 53.6728 32.214 52.9532 32.639C50.7404 34.1498 48.8033 36.029 47.2262 38.195C46.6852 38.8853 46.2321 39.6401 45.8772 40.442C45.5022 41.305 46.0682 41.999 47.0392 42.078H47.0402Z" fill="white"/>
<path d="M138.813 37.173C138.63 37.368 138.451 37.5649 138.265 37.7569C136.243 39.9188 133.808 41.6531 131.104 42.8569C129.617 43.5166 127.966 43.7101 126.368 43.4119C125.909 43.3753 125.465 43.2325 125.071 42.9948C124.677 42.7571 124.344 42.4311 124.097 42.0424C123.851 41.6538 123.699 41.2131 123.652 40.7554C123.605 40.2976 123.666 39.8353 123.829 39.4049C124.205 37.9721 124.921 36.6514 125.918 35.5549C127.836 33.24 130.485 31.6472 133.429 31.0389C134.355 30.8035 135.318 30.7586 136.261 30.907C136.69 30.9606 137.096 31.1312 137.435 31.4001C137.773 31.669 138.031 32.0258 138.18 32.4315C138.329 32.8372 138.364 33.2761 138.281 33.7002C138.197 34.1243 137.998 34.5172 137.707 34.8359C136.817 35.9332 135.701 36.8246 134.434 37.449C132.132 38.5871 129.626 39.2579 127.063 39.423C126.983 39.43 126.904 39.441 126.83 39.449C126.808 39.7425 126.844 40.0375 126.937 40.3168C127.03 40.5962 127.177 40.8544 127.37 41.0766C127.563 41.2988 127.798 41.4805 128.062 41.6114C128.326 41.7422 128.613 41.8195 128.907 41.8389C130.247 41.9636 131.593 41.6746 132.765 41.0109C135.267 39.7383 137.504 37.9999 139.356 35.889C139.636 35.5335 139.858 35.1355 140.013 34.7099C140.794 32.7983 141.698 30.9394 142.721 29.1449C144.667 25.8449 147.67 23.94 151.149 22.634C152.861 21.9454 154.731 21.747 156.55 22.061C157.074 22.1065 157.582 22.2737 158.031 22.5493C158.48 22.825 158.858 23.2014 159.136 23.6489C159.277 23.8638 159.366 24.1082 159.397 24.3631C159.428 24.618 159.4 24.8766 159.316 25.1189C159.205 25.3256 159.049 25.5048 158.86 25.6432C158.671 25.7816 158.453 25.8758 158.223 25.9187C157.992 25.9616 157.755 25.9522 157.529 25.8912C157.303 25.8301 157.093 25.719 156.916 25.566C156.782 25.4247 156.697 25.2447 156.673 25.052C156.649 24.8593 156.686 24.6638 156.781 24.4939C156.855 24.3624 156.941 24.2382 157.039 24.1229C157.159 24.0106 157.246 23.8679 157.291 23.7099C157.336 23.5519 157.338 23.3845 157.295 23.2257C157.253 23.067 157.168 22.9226 157.05 22.8082C156.932 22.6938 156.786 22.6135 156.626 22.5759C156.116 22.4123 155.577 22.3605 155.045 22.424C152.746 22.7741 150.646 23.929 149.119 25.683C147.568 27.4966 146.234 29.4842 145.143 31.6059C143.73 34.0809 142.256 36.5219 140.787 38.9639C140.081 40.0895 139.164 41.0682 138.087 41.846C138.022 41.895 137.962 41.9519 137.886 42.0159C138.048 42.2323 138.256 42.4103 138.494 42.5371C138.733 42.664 138.997 42.7367 139.267 42.7499C141.618 43.0541 143.999 42.4614 145.933 41.0899C147.453 40.0754 148.771 38.7868 149.819 37.29C150.537 36.2863 150.941 35.0917 150.979 33.8579C150.994 33.6238 150.98 33.3887 150.938 33.1579C150.911 32.8973 150.822 32.6469 150.678 32.428C150.534 32.209 150.34 32.0281 150.111 31.9005C149.882 31.7729 149.626 31.7024 149.364 31.695C149.102 31.6876 148.842 31.7435 148.606 31.8579C147.717 32.0839 146.926 32.5949 146.355 33.3129C146.297 33.4072 146.214 33.4837 146.115 33.5339C146.004 33.5724 145.882 33.5656 145.776 33.5149C145.744 33.4748 145.724 33.4275 145.716 33.3773C145.708 33.3271 145.713 33.2757 145.731 33.2279C145.835 32.96 145.983 32.7108 146.168 32.4899C146.844 31.7445 147.73 31.2214 148.709 30.9894C149.689 30.7573 150.716 30.8272 151.655 31.1899C152.425 31.4834 153.061 32.0489 153.443 32.7797C153.825 33.5105 153.926 34.3559 153.726 35.156C153.473 36.581 152.886 37.926 152.014 39.0817C151.143 40.2374 150.011 41.1711 148.711 41.807C145.948 43.2257 142.849 43.8587 139.752 43.6369C138.755 43.6081 137.778 43.3487 136.899 42.8789C136.821 42.8526 136.74 42.8427 136.659 42.8497C136.578 42.8568 136.499 42.8807 136.428 42.92C135.995 43.1812 135.503 43.3291 134.998 43.3499C134.493 43.3707 133.99 43.2637 133.537 43.0389C133.28 42.9119 133.017 42.7389 133.216 42.4079C133.251 42.3429 133.302 42.2875 133.364 42.2463C133.425 42.2051 133.496 42.1794 133.57 42.1714C133.643 42.1633 133.718 42.1732 133.787 42.2001C133.856 42.227 133.918 42.2702 133.967 42.3259C134.139 42.472 134.341 42.5776 134.56 42.635C134.778 42.6924 135.007 42.7 135.228 42.6574C135.45 42.6148 135.659 42.5231 135.841 42.3889C136.023 42.2547 136.172 42.0814 136.278 41.8819C137.211 40.6343 137.999 39.2843 138.627 37.8579C138.72 37.6509 138.805 37.4409 138.895 37.2329L138.813 37.173ZM126.834 38.859L126.961 38.9429C129.725 38.506 132.273 37.1809 134.218 35.1679C134.871 34.5094 135.321 33.676 135.511 32.768C135.547 32.6696 135.56 32.5643 135.549 32.4602C135.537 32.3562 135.502 32.2562 135.445 32.1681C135.389 32.08 135.313 32.0061 135.223 31.9523C135.133 31.8985 135.032 31.8662 134.928 31.8579C134.326 31.7529 133.707 31.843 133.161 32.1149C131.694 32.7368 130.374 33.6582 129.285 34.8198C128.196 35.9815 127.361 37.3579 126.834 38.8609L126.834 38.859Z" fill="white"/>
<path d="M156.632 39.4391C156.608 39.7323 156.642 40.0275 156.733 40.3075C156.823 40.5875 156.969 40.8466 157.16 41.0699C157.352 41.2932 157.586 41.4762 157.849 41.6082C158.112 41.7403 158.399 41.8188 158.692 41.8391C160.004 41.9664 161.324 41.6912 162.475 41.0501C165.055 39.748 167.358 37.9564 169.253 35.7751C169.335 35.6831 169.403 35.5751 169.479 35.4751C169.555 35.3751 169.63 35.2871 169.72 35.1751C170.049 35.4141 169.851 35.6421 169.72 35.8081C169.226 36.4191 168.729 37.0301 168.193 37.6031C166.193 39.7846 163.776 41.5433 161.085 42.7751C159.521 43.4968 157.771 43.7138 156.077 43.3961C155.649 43.3511 155.235 43.212 154.866 42.9889C154.497 42.7657 154.182 42.4639 153.944 42.1049C153.705 41.746 153.548 41.3388 153.485 40.9124C153.422 40.486 153.453 40.0509 153.577 39.6381C153.978 37.923 154.852 36.3551 156.1 35.1131C157.979 33.0272 160.476 31.5971 163.225 31.0321C164.136 30.7981 165.085 30.7518 166.014 30.8961C166.462 30.945 166.887 31.1202 167.239 31.4014C167.591 31.6826 167.856 32.0581 168.003 32.4842C168.15 32.9102 168.172 33.3692 168.068 33.8076C167.964 34.2459 167.737 34.6457 167.414 34.9601C166.422 36.1147 165.189 37.0383 163.802 37.6661C161.618 38.6614 159.271 39.2546 156.876 39.4171C156.786 39.4291 156.706 39.4341 156.632 39.4391ZM156.618 38.8551L156.74 38.9411C159.477 38.5126 162.003 37.2154 163.946 35.2411C164.564 34.625 165.012 33.8595 165.246 33.0191C165.471 32.2011 165.164 31.7391 164.319 31.8281C163.652 31.8982 163.001 32.0794 162.393 32.3641C160.217 33.4712 158.429 35.2153 157.269 37.3641C157.021 37.8473 156.804 38.3456 156.618 38.8561V38.8551Z" fill="white"/>
</g>
</g>
<defs>
<clipPath id="clip0_194_26">
<rect width="172" height="52" fill="white"/>
</clipPath>
</defs>
</svg>
