<svg width="162" height="53" viewBox="0 0 162 53" fill="none" xmlns="http://www.w3.org/2000/svg">
<g clip-path="url(#clip0_143_542)">
<mask id="mask0_143_542" style="mask-type:luminance" maskUnits="userSpaceOnUse" x="0" y="29" width="16" height="24">
<path d="M0 29.165H15.777V52.021H0V29.165Z" fill="white"/>
</mask>
<g mask="url(#mask0_143_542)">
<path d="M9.79004 38.181C7.93904 37.313 6.42188 36.617 6.42188 35.207C6.42188 34.127 7.28914 33.342 8.99414 33.342C9.55561 33.3454 10.1154 33.4023 10.666 33.512C10.9364 33.5643 11.21 33.5941 11.4854 33.601C12.9714 33.601 13.818 32.71 14.377 31.025L14.6094 30.336C12.7503 29.5723 10.7618 29.175 8.75195 29.166C3.69895 29.166 1.02825 32.408 1.03125 35.771C0.983673 37.1933 1.46917 38.582 2.39355 39.664C3.53714 40.8449 4.90657 41.7841 6.41992 42.426C8.50092 43.447 10.3848 44.203 10.3848 45.716C10.3848 47.06 8.9976 47.822 7.1416 47.822C5.34361 47.7372 3.6008 47.1753 2.0918 46.194L-0.000976562 50.109C2.27353 51.4181 4.86155 52.0817 7.48535 52.028C12.2024 52.028 15.7744 49.322 15.7744 45.158C15.7744 41.019 12.4652 39.484 9.78516 38.187" fill="#E21837"/>
</g>
<path d="M28.2354 40.113L36.792 29.623H30.6914L23.8691 38.67H23.7686V29.623H18.7441V51.845H19.0439C21.2189 51.845 23.8037 50.845 23.8037 47.21V42.11H23.9043L30.8584 51.567H37.2529L28.2354 40.113Z" fill="#E21837"/>
<path d="M37.0752 5.8208C35.3072 6.1528 32.6814 7.75779 32.6904 10.5998C32.6974 13.1788 34.8085 14.7438 34.8125 18.1198C34.8259 19.1644 34.5655 20.1943 34.0566 21.1068C33.5478 22.0192 32.8089 22.7823 31.9131 23.3198C32.5845 23.2614 33.2577 23.2307 33.9316 23.2278C34.781 23.2145 35.6302 23.2659 36.4717 23.3818L44.4043 13.6448C42.4058 10.6545 39.9316 8.01096 37.0801 5.81885" fill="#E21837"/>
<path d="M43.7451 32.118C44.7451 30.565 44.87 28.087 44.958 25.562C45.05 23.207 45.5414 21.434 48.6914 21.423C49.3914 21.423 50.0558 21.517 51.2598 21.512C54.6074 21.4994 57.8896 20.5832 60.7598 18.86C55.8647 15.7079 50.2215 13.9089 44.4053 13.646C43.9523 14.921 40.4368 24.6919 40.1738 25.4789C40.7131 26.1265 41.1897 26.8236 41.5977 27.561C42.4767 28.9969 43.1955 30.5246 43.7422 32.1169" fill="#E21837"/>
<path d="M26.9813 24.137C26.5813 24.137 26.381 23.872 26.327 23.41C26.273 22.948 24.289 4.793 23.994 2.045C23.951 1.645 23.8494 0.906033 23.8494 0.645033C23.8344 0.490051 23.8815 0.335396 23.9803 0.21504C24.0791 0.0946846 24.2218 0.0184275 24.3768 0.00300425C24.4004 0.00160275 24.4234 0.00160275 24.4471 0.00300425C28.615 0.770924 32.5511 2.48455 35.953 5.01204C34.7278 5.3199 33.6366 6.01883 32.8446 7.00288C32.0525 7.98693 31.6032 9.20243 31.5643 10.465C31.5753 13.452 33.7134 15.095 33.7244 18.092C33.7414 22.968 28.1383 24.144 26.9783 24.147" fill="#F37725"/>
<path d="M44.2012 33.4141C44.2669 33.6048 44.3497 33.7891 44.4482 33.9651C44.493 34.0565 44.5622 34.1336 44.6484 34.1877C44.7347 34.2418 44.8338 34.2707 44.9355 34.2711C45.0931 34.2609 45.247 34.2187 45.3877 34.1471C45.8077 33.9551 62.3808 26.2411 64.8818 25.0881C65.2418 24.9141 65.9312 24.6071 66.1562 24.4751C66.2565 24.4272 66.3412 24.3523 66.4014 24.2589C66.4616 24.1655 66.4948 24.0572 66.4971 23.9461C66.4949 23.8319 66.4614 23.7203 66.4014 23.6231C65.0829 22.0425 63.5323 20.6715 61.8018 19.5571C58.667 21.4721 55.0744 22.5083 51.4014 22.5571C50.1924 22.5571 49.9149 22.4781 49.0889 22.4801C46.6739 22.4901 46.0723 23.5191 45.9893 25.6381C45.9733 26.0381 45.9683 26.5761 45.9453 27.1641C45.8673 29.0571 45.6452 31.6641 44.1992 33.4101" fill="#F37725"/>
<path d="M53.8758 51.8389C52.2197 51.8375 50.5733 51.5866 48.9918 51.0949L48.9648 51.0789V33.4949H49.4438C50.1155 33.4795 50.7657 33.7313 51.2518 34.1949C51.5115 34.4771 51.7125 34.808 51.8432 35.1685C51.9738 35.5291 52.0315 35.9119 52.0128 36.2949V39.5949H52.0198C52.6941 39.4199 53.3872 39.3276 54.0838 39.3199C54.8804 39.3149 55.6721 39.4454 56.4248 39.7059C57.1487 39.9586 57.8125 40.3579 58.3748 40.8789C58.9974 41.5076 59.482 42.2592 59.7977 43.0856C60.1135 43.9121 60.2535 44.7953 60.2088 45.6789C60.2399 46.4934 60.1082 47.3059 59.8217 48.0689C59.5351 48.832 59.0993 49.5302 58.5398 50.1229C57.3556 51.2324 55.7936 51.8498 54.1708 51.8499C54.0718 51.8459 53.9748 51.8439 53.8758 51.8389ZM52.0078 41.9949V49.1789L52.0778 49.1949C52.536 49.3073 53.0061 49.3638 53.4778 49.3629C54.3762 49.3861 55.247 49.0514 55.8987 48.4325C56.5504 47.8137 56.9295 46.9613 56.9528 46.0629C56.9582 45.9036 56.9508 45.7441 56.9308 45.5859C56.9308 43.2499 55.6098 41.8069 53.4808 41.8069H53.4538C52.9658 41.8072 52.4798 41.8703 52.0078 41.9949ZM98.2958 50.1159C97.7366 49.5235 97.3011 48.8255 97.0147 48.0628C96.7283 47.3002 96.5968 46.488 96.6278 45.6739C96.583 44.7903 96.723 43.9071 97.0388 43.0806C97.3546 42.2541 97.8392 41.5026 98.4618 40.8739C99.0236 40.3531 99.6872 39.9543 100.411 39.7029C101.162 39.4414 101.953 39.3108 102.749 39.3169C103.441 39.323 104.13 39.413 104.801 39.5849H104.825V36.2849C104.806 35.9035 104.864 35.5221 104.994 35.1632C105.125 34.8043 105.326 34.4751 105.586 34.1949C105.826 33.9647 106.109 33.7844 106.419 33.6642C106.729 33.5441 107.06 33.4865 107.393 33.4949H107.865V51.0789L107.838 51.0859C106.258 51.5824 104.611 51.8356 102.955 51.8369C102.855 51.8369 102.755 51.8439 102.662 51.8439C101.04 51.8422 99.4798 51.2239 98.2958 50.1159ZM99.8958 45.5859C99.8395 46.0679 99.8876 46.5562 100.037 47.0179C100.186 47.4796 100.433 47.9038 100.76 48.2616C101.088 48.6194 101.489 48.9026 101.936 49.0917C102.383 49.2809 102.865 49.3717 103.35 49.3579C103.822 49.3594 104.292 49.3037 104.75 49.1919L104.819 49.1759V41.9949H104.811C104.332 41.8725 103.84 41.8107 103.346 41.8109C101.226 41.8069 99.8988 43.2579 99.8988 45.5869L99.8958 45.5859ZM76.1938 51.8369C75.383 51.8725 74.5736 51.7391 73.817 51.4452C73.0604 51.1514 72.3732 50.7035 71.7988 50.1299C70.7034 48.875 70.1339 47.2461 70.2088 45.5819C70.1342 43.9195 70.7001 42.2917 71.7898 41.0339C72.3634 40.4573 73.051 40.0066 73.8086 39.7108C74.5662 39.4149 75.3773 39.2805 76.1898 39.3159C79.8828 39.3159 82.1838 41.7159 82.1838 45.5829C82.2499 47.2077 81.7083 48.7988 80.6648 50.0459C80.1228 50.6143 79.4711 51.0668 78.7492 51.3762C78.0273 51.6856 77.2502 51.8454 76.4648 51.8459C76.3768 51.8439 76.2848 51.8419 76.1938 51.8369ZM73.2448 45.5819C73.2448 47.9609 74.4068 49.4879 76.1928 49.4879C78.0108 49.4879 79.1438 47.9879 79.1438 45.5799C79.1438 43.1719 78.0108 41.6629 76.1928 41.6629C74.4048 41.6639 73.2448 43.2049 73.2448 45.5819ZM88.0548 51.8399C86.9864 51.87 85.9446 51.5038 85.1298 50.8119C84.7546 50.468 84.4577 50.0474 84.2595 49.5786C84.0612 49.1097 83.9662 48.6037 83.9808 48.0949C83.9808 45.4759 86.2578 43.9729 90.2268 43.9729H91.2268V43.5549C91.2268 42.3129 90.3628 41.6009 88.8578 41.6009C88.2079 41.6055 87.5642 41.7278 86.9578 41.9619C86.6494 42.0892 86.3219 42.1642 85.9888 42.1839C85.3378 42.1839 85.0698 41.7049 84.8428 41.2839C84.8018 41.2159 84.7678 41.1499 84.7318 41.0839C84.6631 40.9603 84.5938 40.8369 84.5238 40.7139C85.9225 39.8106 87.5498 39.3249 89.2148 39.3139C92.5598 39.3139 94.3278 40.8569 94.3278 43.7739V47.9839C94.2883 49.1066 94.4088 50.2292 94.6858 51.3179L94.6998 51.3699C94.2376 51.493 93.7621 51.5602 93.2838 51.5699C92.8941 51.5892 92.5086 51.4825 92.1844 51.2654C91.8602 51.0483 91.6145 50.7326 91.4838 50.3649C91.4475 50.3951 91.414 50.4286 91.3838 50.4649C90.9727 50.9011 90.4768 51.2487 89.9265 51.4863C89.3763 51.724 88.7832 51.8467 88.1838 51.8469L88.0548 51.8399ZM87.1358 47.7049C87.1313 48.1523 87.3043 48.5832 87.617 48.9032C87.9297 49.2232 88.3565 49.4061 88.8038 49.4119C88.8653 49.4124 88.9267 49.4094 88.9878 49.4029C89.7588 49.3826 90.5023 49.1128 91.1068 48.6339C91.1462 48.6037 91.1876 48.5763 91.2308 48.5519V46.0419H89.6528C87.9168 46.0359 87.1358 46.8729 87.1358 47.7039V47.7049ZM62.2938 51.5689V42.5339C62.3026 41.557 62.1891 40.5827 61.9558 39.6339C62.2185 39.5748 62.4866 39.5436 62.7558 39.5409C63.2374 39.5008 63.7183 39.6266 64.1185 39.8974C64.5187 40.1683 64.8142 40.5679 64.9558 41.0299C65.7957 40.0745 66.9594 39.4636 68.2228 39.3149C68.9201 39.2629 69.6152 39.4406 70.2018 39.8209L69.0828 42.3499C68.6637 42.1013 68.1831 41.9756 67.6958 41.9869C66.8126 42.0504 65.9805 42.4254 65.3478 43.0449V51.5699L62.2938 51.5689Z" fill="#F37725"/>
<mask id="mask1_143_542" style="mask-type:luminance" maskUnits="userSpaceOnUse" x="150" y="33" width="12" height="19">
<path d="M150.723 33.4302H162V51.8362H150.723V33.4302Z" fill="white"/>
</mask>
<g mask="url(#mask1_143_542)">
<path d="M157.076 51.836C156.22 51.8753 155.366 51.7427 154.562 51.4463C153.758 51.1499 153.022 50.6955 152.397 50.11C151.835 49.5158 151.397 48.8153 151.11 48.0495C150.822 47.2838 150.691 46.4683 150.723 45.651C150.678 44.7649 150.818 43.879 151.134 43.0501C151.451 42.2212 151.937 41.4675 152.561 40.8371C153.126 40.314 153.793 39.9136 154.52 39.661C155.275 39.3993 156.068 39.2687 156.867 39.275C157.561 39.2805 158.253 39.3708 158.925 39.544L158.948 39.55V36.235C158.929 35.8509 158.987 35.4668 159.118 35.1052C159.249 34.7436 159.451 34.4118 159.711 34.129C159.953 33.8988 160.236 33.7183 160.547 33.5982C160.859 33.4781 161.191 33.4206 161.524 33.429H162.006V51.073L161.975 51.083C160.39 51.5799 158.737 51.8337 157.076 51.836ZM157.476 41.771C155.341 41.771 154.012 43.224 154.012 45.563C153.91 46.4584 154.167 47.358 154.727 48.064C155.287 48.77 156.105 49.2247 157.001 49.328C157.158 49.3463 157.317 49.3533 157.476 49.349C157.95 49.3498 158.423 49.2934 158.883 49.181L158.952 49.1651V41.957C158.469 41.8333 157.973 41.7711 157.475 41.772L157.476 41.771Z" fill="#F37725"/>
</g>
<path d="M116.287 51.8379C114.632 51.836 112.987 51.5842 111.408 51.0909L111.376 51.0789V33.4959H111.855C112.188 33.4875 112.519 33.545 112.83 33.6651C113.141 33.7852 113.424 33.9656 113.665 34.1959C113.925 34.4778 114.126 34.8088 114.256 35.1694C114.387 35.53 114.444 35.913 114.424 36.2959V39.5959H114.433C115.107 39.419 115.8 39.327 116.497 39.3219C117.293 39.3156 118.085 39.4458 118.837 39.7069C119.561 39.9585 120.226 40.3572 120.789 40.8779C121.411 41.5066 121.895 42.2582 122.21 43.0848C122.525 43.9114 122.664 44.7946 122.618 45.6779C122.65 46.4926 122.52 47.3054 122.233 48.0688C121.947 48.8322 121.511 49.5306 120.951 50.1229C119.767 51.2319 118.205 51.8487 116.582 51.8479L116.287 51.8379ZM114.421 41.9959V49.1809L114.492 49.1969C114.95 49.3093 115.42 49.3657 115.892 49.3649C116.337 49.3764 116.779 49.3001 117.194 49.1404C117.61 48.9807 117.989 48.7408 118.312 48.4343C118.634 48.1279 118.893 47.7609 119.074 47.3543C119.254 46.9478 119.353 46.5096 119.364 46.0649C119.369 45.9053 119.362 45.7455 119.343 45.5869C119.343 43.2499 118.023 41.8079 115.895 41.8079H115.869C115.38 41.8092 114.894 41.8723 114.421 41.9959ZM128.513 51.8389C127.445 51.8703 126.403 51.504 125.589 50.8109C125.215 50.4682 124.918 50.0491 124.72 49.5819C124.521 49.1147 124.426 48.6103 124.439 48.1029C124.439 45.4809 126.715 43.9799 130.684 43.9799H131.684V43.5589C131.684 42.3159 130.821 41.6029 129.315 41.6029C128.665 41.6092 128.022 41.7318 127.415 41.9649C127.106 42.092 126.779 42.167 126.446 42.1869C125.787 42.1869 125.526 41.7049 125.296 41.2809C125.261 41.2155 125.226 41.1505 125.19 41.0859L124.979 40.7169C126.378 39.8094 128.008 39.3231 129.676 39.3159C133.022 39.3159 134.791 40.8579 134.791 43.7739V47.9859C134.751 49.1082 134.871 50.2305 135.147 51.3189L135.161 51.3709C134.7 51.4939 134.226 51.561 133.749 51.5709C133.36 51.5899 132.975 51.4836 132.651 51.2676C132.327 51.0516 132.081 50.7373 131.949 50.3709C131.928 50.3889 131.896 50.4209 131.849 50.4709C131.438 50.9075 130.942 51.2553 130.392 51.4928C129.842 51.7304 129.248 51.8526 128.649 51.8519L128.513 51.8389ZM127.603 47.7069C127.6 47.9285 127.641 48.1484 127.724 48.3541C127.806 48.5598 127.928 48.7472 128.083 48.9056C128.238 49.064 128.423 49.1903 128.627 49.2772C128.83 49.364 129.049 49.4098 129.271 49.4119C129.332 49.4141 129.394 49.4118 129.455 49.4049C130.224 49.382 130.966 49.1121 131.57 48.6349C131.622 48.5989 131.663 48.5689 131.692 48.5529V46.0389H130.121C128.376 46.0339 127.603 46.8719 127.603 47.7049V47.7069ZM145.618 51.5699V44.5509C145.631 44.4404 145.636 44.3292 145.634 44.2179C145.618 43.5966 145.357 43.007 144.907 42.5782C144.457 42.1495 143.855 41.9167 143.234 41.9309C142.302 42.0316 141.433 42.4525 140.776 43.1219V51.5679H137.721V43.4389C137.751 42.1821 137.636 40.926 137.376 39.6959C137.752 39.6092 138.136 39.5583 138.522 39.5439C138.963 39.5065 139.404 39.618 139.774 39.8605C140.144 40.1031 140.422 40.4627 140.564 40.8819C141.536 39.8967 142.849 39.3222 144.232 39.2769C144.42 39.2645 144.61 39.2645 144.798 39.2769C145.908 39.363 146.939 39.8864 147.663 40.7322C148.388 41.5779 148.746 42.6767 148.661 43.7869V51.5649L145.618 51.5699Z" fill="#F37725"/>
</g>
<defs>
<clipPath id="clip0_143_542">
<rect width="162" height="52.346" fill="white"/>
</clipPath>
</defs>
</svg>
